<?xml version="1.0" standalone="no"?>
<!DOCTYPE svg PUBLIC "-//W3C//DTD SVG 1.1//EN" "http://www.w3.org/Graphics/SVG/1.1/DTD/svg11.dtd" >
<svg>
<metadata>
Created by FontForge 20120731 at Mon May 29 14:57:16 2017
 By www-data
Copyright: Copyright `2011 Paul Alan Grosse. All rights reserved. Released under the GPL.
</metadata>
<defs>
<font id="Gur_Old_Letterpress5Medium" horiz-adv-x="0" >
  <font-face 
    font-family="Gur Old Letterpress 5 Medium"
    font-weight="500"
    font-stretch="normal"
    units-per-em="2000"
    panose-1="2 0 5 0 0 0 0 2 0 4"
    ascent="1600"
    descent="-400"
    x-height="1271"
    cap-height="1836"
    bbox="-1303 -836.818 2597.56 2205"
    underline-thickness="64"
    underline-position="-638"
    unicode-range="U+000C-262C"
  />
<missing-glyph horiz-adv-x="1024" 
d="M896 0h-768v2048h768v-2048zM768 128v1792h-512v-1792h512z" />
    <glyph glyph-name="glyph150" unicode="Ru" 
d="M-321 -461q102 -9 102 -42q0 -45 -181 -93q-96 -26 -236 -24q-67 1 -105 33q-32 27 -30 81q2 51 36 81q16 14 78 18q47 3 72 -9q45 -21 63 -54zM142 -291l-4 4q-34 34 -151.5 90t-182.5 73q-18 -32 -51 -61q-110 -100 -192 -19q-16 17 -16 38q0 66 60.5 103t130.5 42v207
q0 20 13.5 35t34.5 19.5t29 -6.5q13 -18 13 -28v-236q78 -19 228 -90.5t168 -111.5q1 -2 9 -23q4 -17 -6.5 -34.5t-29 -25t-34 -0.5t-18.5 24h-1z" />
    <glyph glyph-name="glyph151" unicode="&#xac;u" 
d="M-244 -186q-16 42 -47 42.5t-48.5 -20.5t-17.5 -51t17.5 -51t46.5 -21q32 1 48 41l87 1q-7 -45 -43.5 -82.5t-92.5 -37.5h-1h-1q-56 0 -91.5 34.5t-39.5 52.5q-7 23 -10 23h-10q-72 0 -114 50t-42 100q0 107 125 184q50 31 174 31q23 0 48 -1v115h65v-148
q0 -18 -15.5 -36t-31.5 -18l-75 2q-135 0 -179.5 -33t-44.5 -68v-1q0 -35 36 -67t64 -34q4 0 9.5 18.5t39 53.5t92 35t92.5 -36q37 -37 45 -78h-85zM-321 -461q102 -9 102 -42q0 -45 -181 -93q-96 -26 -236 -24q-67 1 -102 30.5t-33 82t27 74.5t80 26q104 6 142 -63z" />
    <glyph glyph-name="glyph152" unicode="Hu" 
d="M-179 226q27 -69 26 -202t-63 -190q-21 -20 -57 -38.5t-119.5 -18.5t-129 46.5t-45.5 94t44 91.5q14 15 33 17t30.5 -9.5t9.5 -30.5t-14.5 -31t-12.5 -23t26 -38t96 -27t90.5 33.5t21 127.5t-13.5 130t-6 54t25.5 28t34.5 6t24 -20zM-321 -461q102 -9 102 -42
q0 -45 -181 -93q-96 -26 -236 -24q-67 1 -102 30.5t-33 82t27 74.5t80 26q104 6 142 -63z" />
    <glyph glyph-name="glyph154" unicode="&#xac;U" 
d="M-244 -186q-16 42 -47 42.5t-48.5 -20.5t-17.5 -51t17.5 -51t46.5 -21q32 1 48 41l87 1q-7 -45 -43.5 -82.5t-92.5 -37.5h-1h-1q-56 0 -91.5 34.5t-39.5 52.5q-7 23 -10 23h-10q-72 0 -114 50t-42 100q0 107 125 184q50 31 174 31q23 0 48 -1v115h65v-148
q0 -18 -15.5 -36t-31.5 -18l-75 2q-135 0 -179.5 -33t-44.5 -68v-1q0 -35 36 -67t64 -34q4 0 9.5 18.5t39 53.5t92 35t92.5 -36q37 -37 45 -78h-85zM-318 -686q105 1 107 -25q3 -36 -179 -88q-96 -28 -239 -37q-142 -9 -145 81q-1 41 23.5 60t79.5 26q106 13 149 -39z
M-312 -493q98 -25 93 -53q-8 -37 -195 -45q-99 -4 -236 21q-65 13 -94.5 43.5t-18.5 73.5t50 62q18 9 72 2q104 -13 129 -77z" />
    <glyph glyph-name="glyph155" unicode="HU" 
d="M-179 226q27 -69 26 -185q-1 -150 -63 -207q-21 -20 -57 -38.5t-119.5 -18.5t-121.5 38q-53 55 -53 102.5t44 91.5q14 15 33 17t30.5 -9.5t9.5 -30.5t-14.5 -31t-12.5 -17q0 -17 26 -44t82 -27q84 0 104.5 33.5t21 127.5t-13.5 130t-6 54t25.5 28t34.5 6t24 -20z
M-318 -686q105 1 107 -25q3 -36 -179 -88q-96 -28 -239 -37q-68 -4 -109 19q-34 19 -36 62q-1 41 32 67q16 12 78 20q48 6 74 -2q47 -13 68 -38zM-312 -493q98 -25 93 -53q-8 -37 -195 -45q-99 -4 -236 21q-65 13 -97 46q-27 28 -16 72q11 42 50 61q18 9 80 1q46 -6 69 -20
q40 -25 52 -56z" />
    <glyph glyph-name="glyph156" unicode="RU" 
d="M-318 -686q105 1 107 -25q3 -36 -179 -88q-96 -28 -239 -37q-68 -4 -109 19q-34 19 -36 62q-1 41 32 67q16 12 78 20q48 6 74 -2q47 -13 68 -38zM-312 -493q98 -25 93 -53q-8 -37 -195 -45q-99 -4 -236 21q-65 13 -97 46q-27 28 -16 72q11 42 50 61q18 9 80 1
q46 -6 69 -20q40 -25 52 -56zM142 -291q-3 2 -5 4q-33 34 -151 90t-183 73q-18 -32 -50 -61q-111 -100 -193 -19q-16 17 -16 38q0 66 61 103t130 42v207q0 20 13.5 35t34.5 19.5t29 -6.5q14 -18 14 -28v-236q77 -19 227 -90.5t168 -111.5q1 -2 10 -23q3 -17 -7.5 -34.5
t-29 -25t-34 -0.5t-18.5 24v0z" />
    <glyph glyph-name="NameMe.1114233" unicode="nUM" horiz-adv-x="1313" 
d="M1062 342q10 2 11 18t-3 25q-32 68 -196 255.5t-220 210.5q-48 -28 -199.5 -203.5t-166.5 -217.5v-34t25.5 -43t165.5 -17q20 0 26 -16.5t-6 -40.5t-35 -40.5t-43 -16.5q-177 0 -211 34t-35.5 98.5t55.5 143.5t180 221t214 208v202h-626l-24 138l28 4h1329l24 -138
l-28 -4h-589v-169q6 -3 255 -243q14 -14 44 -51l67 -81q87 -107 84 -159q-9 -142 -103 -179q-61 -24 -202 -25q-20 0 -26 16.5t6 40.5t35 40.5t43 16.5q80 0 121 6zM900 -416q105 1 107 -25q3 -36 -179 -88q-96 -28 -239 -37q-68 -4 -109 19q-34 19 -36 62q-1 41 32 67
q16 12 78 20q48 6 74 -2q47 -13 68 -38zM906 -223q98 -25 93 -53q-8 -37 -195 -45q-99 -4 -236 21q-65 13 -97 46q-27 28 -16 72q11 42 50 61q18 9 80 1q46 -6 69 -20q40 -25 52 -56zM773 1416q-46 10 -15 55q34 49 34 103q0 60 -34 103q-12 15 -86 15q-72 0 -80 -15
q-37 -73 -34 -103q0 -3 34 -103q25 -74 -48 -61q-54 10 -70 26q-79 82 -79 204q0 119 79 203q67 71 188 71q143 0 199 -71q80 -84 80 -203q0 -77 -80 -204q-21 -35 -88 -20z" />
    <glyph glyph-name="Rd_p_H" unicode="VH" horiz-adv-x="1216" 
d="M756 291q-90 -24 -211 -23q-125 0 -215 18q20 -56 48 -100q10 -14 1 -37.5t-31 -42.5t-44 -22.5t-31 10.5q-62 97 -86 240q-19 8 -16 31.5t22 45.5t42 31.5t38 0.5q99 -60 310.5 -61t253.5 42q32 31 32 85q-1 127 -71 199q-144 -13 -595 -13q-20 0 -26 16.5t6 40.5
t35 40.5t43 16.5q549 0 616 16q38 10 59 62.5t24 241.5h-962l-24 138l28 4h1226l25 -138l-28 -4h-152q-7 -166 -38.5 -241t-100.5 -129q49 -77 48 -192q0 -47 -27 -103q40 -72 38 -253q-1 -150 -63 -207q-21 -20 -57 -38.5t-119.5 -18.5t-121.5 38q-53 55 -53 102.5t44 91.5
q14 15 33 17t30.5 -9.5t9.5 -30.5t-14.5 -31t-12.5 -17q0 -17 25.5 -44t82.5 -27q84 0 105 34q20 33 21 127q1 101 -15 164q-35 -46 -132 -71z" />
    <glyph glyph-name="n_pr_H.1114235" unicode="nH" horiz-adv-x="1371" 
d="M1105 14q-23 -17 -61 -32t-121 -6q-79 8 -123 60q-104 120 10 211q16 13 34.5 13t29 -13t6.5 -31t-17.5 -29t-15 -22t21.5 -40.5t93 -36.5q63 -7 94 31q21 26 32 100q19 123 -22 174q-31 63 -193.5 249t-218.5 209q-48 -28 -199.5 -203.5t-166.5 -217.5v-34t25.5 -43
t165.5 -17q20 0 26 -16.5t-6 -40.5t-35 -40.5t-43 -16.5q-177 0 -211 34t-35.5 98.5t55.5 143.5t180 221t214 208v202h-626l-24 138l28 4h1371l24 -138l-28 -4h-631v-169q6 -3 255 -243q14 -14 44 -51l67 -81q65 -80 84 -159q73 -297 -83 -412z" />
    <glyph glyph-name=".notdef" horiz-adv-x="1024" 
d="M896 0h-768v2048h768v-2048zM768 128v1792h-512v-1792h512z" />
    <glyph glyph-name=".null" 
 />
    <glyph glyph-name="nonmarkingreturn" horiz-adv-x="666" 
 />
    <glyph glyph-name="uni0000" 
 />
    <glyph glyph-name="uni0000" 
 />
    <glyph glyph-name="uni000C" horiz-adv-x="1024" 
 />
    <glyph glyph-name="space" unicode=" " horiz-adv-x="800" 
 />
    <glyph glyph-name="exclam" unicode="!" horiz-adv-x="1327" 
d="M1062 342q10 2 11 18t-3 25q-32 68 -196 255.5t-220 210.5q-48 -28 -199.5 -203.5t-166.5 -217.5v-34t25.5 -43t165.5 -17q20 0 26 -16.5t-6 -40.5t-35 -40.5t-43 -16.5q-177 0 -211 34t-35.5 98.5t55.5 143.5t180 221t214 208v202h-626l-24 138l28 4h1329l24 -138
l-28 -4h-589v-169q6 -3 255 -243q14 -14 44 -51l67 -81q87 -107 84 -159q-9 -142 -103 -179q-61 -24 -202 -25q-20 0 -26 16.5t6 40.5t35 40.5t43 16.5q80 0 121 6zM900 -416q105 1 107 -25q3 -36 -179 -88q-96 -28 -239 -37q-68 -4 -109 19q-34 19 -36 62q-1 41 32 67
q16 12 78 20q48 6 74 -2q47 -13 68 -38zM906 -223q98 -25 93 -53q-8 -37 -195 -45q-99 -4 -236 21q-65 13 -97 46q-27 28 -16 72q11 42 50 61q18 9 80 1q46 -6 69 -20q40 -25 52 -56zM773 1416q-46 10 -15 55q34 49 34 103q0 60 -34 103q-12 15 -86 15q-72 0 -80 -15
q-37 -73 -34 -103q0 -3 34 -103q25 -74 -48 -61q-54 10 -70 26q-79 82 -79 204q0 119 79 203q67 71 188 71q143 0 199 -71q80 -84 80 -203q0 -77 -80 -204q-21 -35 -88 -20z" />
    <glyph glyph-name="quotedbl" unicode="&#x22;" horiz-adv-x="1200" 
d="M460 1000v-60h-120v60v400v60h120v-60v-400zM860 1000v-60h-120v60v400v60h120v-60v-400z" />
    <glyph glyph-name="numbersign" unicode="#" horiz-adv-x="1200" 
d="M860 0v-60h-120v60v340h-280v-340v-60h-120v60v340h-140h-60v120h60h140v280h-140h-60v120h60h140v340v60h120v-60v-340h280v340v60h120v-60v-340h140h60v-120h-60h-140v-280h140h60v-120h-60h-140v-340zM740 460v280h-280v-280h280z" />
    <glyph glyph-name="dollar" unicode="$" horiz-adv-x="1200" 
d="M260 596q0 -77 36 -106.5t104 -29.5h140v280h-140h-3h-3h-2.5h-2.5q-32 0 -63.5 6.5t-66 24t-60 45.5t-42.5 75.5t-17 108.5v3v3q0 36 7 69.5t25 68t46.5 59.5t75 41t106.5 16h140v340v60h120v-60v-340h140h3h3q36 0 69.5 -7t68 -25t59.5 -46.5t41 -75t16 -106.5v-60
h-120v60q0 68 -29.5 104t-106.5 36h-2h-2h-140v-280h140q60 0 106.5 -16t75 -41t46.5 -59.5t25 -68t7 -69.5v-3v-3q0 -60 -16 -106.5t-41 -75t-59.5 -46.5t-68 -25t-69.5 -7h-3h-3h-140v-340v-60h-120v60v340h-140q-60 0 -106.5 16t-75 41t-46.5 59.5t-25 68t-7 69.5v3v3v60
h120v-60v-2v-2zM660 740v-280h140h2h2q77 0 106.5 36t29.5 104v2v2q0 77 -36 106.5t-104 29.5h-140zM540 860v280h-140q-68 0 -104 -29.5t-36 -106.5v-2v-2q0 -67 29 -103.5t103 -36.5h1.5h2.5h2h2h140z" />
    <glyph glyph-name="percent" unicode="%" horiz-adv-x="1200" 
d="M1060 1100q-1 -125 -218 -342l-400 -400q-89 -90 -135.5 -157.5t-46.5 -95.5v-3v-2v-100v-60h-120v60v100q0 2 0.5 8.5t0.5 8.5q0 48 54.5 133t162.5 192l400 400q101 102 141.5 165.5t40.5 92.5l1 100v60h120l-1 -60v-100zM141 1004q0 104 76 180t183.5 76t183.5 -76
t76 -184t-76 -184t-183.5 -76t-183.5 76t-76 180l-0.5 2l-0.5 2l0.5 2zM260 1000l0.5 -1l0.5 -1q0 -56 41 -97t98.5 -41t98.5 41t41 99t-41 99t-98.5 41t-98.5 -41t-41 -97l-0.5 -1zM616 384q76 76 184 76t184 -76t76 -184t-76 -184t-184 -76t-184 76t-76 184t76 184z
M660 200q0 -58 41 -99t99 -41t99 41t41 99t-41 99t-99 41t-99 -41t-41 -99z" />
    <glyph glyph-name="ampersand" unicode="&#x26;" horiz-adv-x="1096" 
d="M864 1129q-18 -192 -117.5 -245t-208.5 -53q-170 0 -226 -78q-31 -44 -30 -124q4 -195 181 -305q-18 58 -15.5 95t15.5 69q26 61 70 105q80 79 182 85q110 7 176 -59q97 -97 67 -235q-12 -56 -31 -78l-37 -43q-2 -3 -12 -12q-137 -119 -268 -108q-198 18 -319 139
t-123 289q-2 147 100 252q37 39 91 68q99 54 204.5 54t165.5 28q19 41 23 156h-754l-24 138l28 4h1109l24 -138l-28 -4h-243zM561 464q24 -198 113 -207q79 -8 158 62q22 18 17 87t-58.5 115.5t-127.5 42.5q-96 -5 -102 -100zM61 148q0 46 47 76q23 14 59 16q47 4 82 -41
q25 -33 25 -61q0 -40 -23 -61q-35 -31 -84 -31q-52 0 -78 31q-28 32 -28 71z" />
    <glyph glyph-name="quotesingle" unicode="'" horiz-adv-x="789" 
d="M460 1000v-60h-120v60v400v60h120v-60v-400z" />
    <glyph glyph-name="parenleft" unicode="(" horiz-adv-x="1200" 
d="M660 700v-200v-6.5v-6.5q0 -58 3 -113t14 -134t29.5 -145.5t53.5 -135.5t82 -117l43 -42l-85 -85l-42 43q-218 217 -218 728v7.5v6.5v200q0 536 219 744l43 41l83 -87l-44 -42q-181 -172 -181 -656z" />
    <glyph glyph-name="parenright" unicode=")" horiz-adv-x="1200" 
d="M660 700v-200v-6.5v-7.5q0 -511 -218 -728l-42 -43l-85 85l43 42q47 48 82 117t53.5 135.5t29.5 145.5t14 134t3 113v6.5v6.5v200q0 484 -181 656l-44 42l83 87l43 -41q219 -208 219 -744z" />
    <glyph glyph-name="asterisk" unicode="*" horiz-adv-x="1200" 
d="M300 460h1q30 0 94 42q49 32 119 98q-70 66 -119 98q-64 42 -94 42h-1h-100h-60v120h60h100h2h2q92 0 236 -122v262v60h120v-60v-262q52 45 94 70q78 48 137 52h9h100h60v-120h-60h-100h-25h18h4q-67 -4 -211 -140q62 -59 113 -93q67 -47 96 -47h2h3h100h60v-120h-60
h-100q-2 0 -8.5 0.5t-8.5 0.5q-49 0 -134 55q-42 26 -89 66v-262v-60h-120v60v263q-145 -123 -236 -123h-2h-2h-100h-60v120h60h100z" />
    <glyph glyph-name="plus" unicode="+" 
d="M-233 1416q-46 10 -15 55q34 49 34 103q0 60 -34 103q-12 15 -86 15q-72 0 -80 -15q-37 -73 -34 -103q0 -3 34 -103q25 -74 -48 -61q-54 10 -70 26q-79 82 -79 204q0 119 79 203q67 71 188 71q143 0 199 -71q80 -84 80 -203q0 -77 -80 -204q-21 -35 -88 -20z" />
    <glyph glyph-name="comma" unicode="," horiz-adv-x="500" 
d="M301 26q89 -158 -93 -285q-23 -16 -43 -15t-25 18t8 41t30 35.5t28 22.5q18 18 4 61q-5 -1 -9 -1q-52 0 -79 32t-27 74t47 73q23 14 64.5 16.5t76.5 -41.5q12 -16 18 -31z" />
    <glyph glyph-name="hyphen" unicode="-" 
d="M-321 -141q102 -9 102 -42q0 -45 -181 -93q-96 -26 -236 -24q-67 1 -105 33q-32 27 -30 81q2 51 36 81q16 14 78 18q47 3 72 -9q45 -21 63 -54z" />
    <glyph glyph-name="period" unicode="." horiz-adv-x="500" 
d="M89 -2q0 45 47 76q23 14 59 16q47 3 82 -41q25 -33 25 -62q0 -40 -23 -61q-35 -31 -84 -31q-52 0 -78 31q-28 33 -28 72z" />
    <glyph glyph-name="slash" unicode="/" horiz-adv-x="1200" 
d="M1060 1100q-1 -125 -218 -342l-400 -400q-89 -90 -135.5 -157.5t-46.5 -95.5v-3v-2v-100v-60h-120v60v100q0 2 0.5 8.5t0.5 8.5q0 48 54.5 133t162.5 192l400 400q101 102 141.5 165.5t40.5 92.5l1 100v60h120l-1 -60v-100z" />
    <glyph glyph-name="zero" unicode="0" horiz-adv-x="1127" 
d="M256 743q0 257 161 419q66 65 138 92q43 16 87 16q86 0 157 -61q8 -8 16 -15q56 -57 90 -146q39 -101 39 -220q0 -127 -41 -232q-33 -82 -81 -143q-55 -69 -122 -110q-27 -16 -55 -26q-43 -16 -87 -16q-86 0 -157 61q-8 8 -16 15q-56 57 -90 146q-39 101 -39 220z
M812 743q0 213 -124 337q-57 57 -116.5 57t-91.5 -26t-62 -102t-30 -182.5t34 -192.5q37 -97 96 -148.5t124 -51.5q60 0 89 37q81 101 81 272z" />
    <glyph glyph-name="one" unicode="1" horiz-adv-x="1066" 
d="M481 1086q-148 0 -149 -168q1 -109 72.5 -180.5t161.5 -71.5q145 0 149 159v9q-1 109 -72 180.5t-162 71.5zM481 534q-113 0 -197 84t-84 197q1 181 120 292q69 58 95 72q75 39 151 39q121 -1 202 -89q82 -88 80 -211q-10 -641 18 -779q3 -19 -13.5 -46.5t-44 -47.5
t-49 -21t-25.5 17q-24 121 -21 592q-57 -48 -81 -60q-75 -39 -151 -39z" />
    <glyph glyph-name="two" unicode="2" horiz-adv-x="1200" 
d="M228 1105q80 112 268 160q125 31 281 -126q90 -89 95.5 -213.5t-120.5 -235.5q-76 -66 -159 -101l230 -222l184 -187q17 -17 -5 -44q-4 -8 -22.5 -14.5t-30.5 5.5l-183 187q-143 145 -258 249q-14 -3 -28 -5q-68 -10 -170 51q-89 52 2 143q3 2 34 27q51 41 102 3t111 -91
q98 17 159 78q24 23 22 65q-7 114 -86 189q-140 132 -215 112q-129 -34 -144 -83q-9 -9 -38 -24t-36 -14q-20 2 -21 26t28 65z" />
    <glyph glyph-name="three" unicode="3" horiz-adv-x="1065" 
d="M201 1001q3 47 79 109q101 81 278.5 81t279.5 -102q82 -82 50 -206q-24 -95 -96 -159q50 -24 99 -72.5t46 -177.5q-3 -158 -130.5 -258t-253.5 -108q236 -325 242 -356q5 -18 -16 -30.5t-31.5 -3.5t-279.5 395q-98 16 -168 90l-15 15q-64 68 -69 81q-21 54 30 105
q7 1 46 21t48 17q40 -13 122 -126l36 -50q52 -26 113 -26q108 0 164 57q29 28 30 114.5t-43 128.5q-74 72 -169 85q-34 -7 -103.5 -7t-80.5 6q-51 34 17 101q36 38 64 36.5t93.5 -1.5t84.5 -1q39 9 74 31q20 12 20.5 82.5t-85.5 128.5t-207 58t-160 -30q-20 -25 -47 -41.5
t-45.5 -12.5t-16.5 26z" />
    <glyph glyph-name="four" unicode="4" horiz-adv-x="1200" 
d="M877 143q14 9 14 45q-6 215 -319 374q-229 -146 -230 -234t99 -175q196 -169 436 -10zM832 1459q166 -186 164 -365q-1 -234 -267 -430q289 -163 294 -390q3 -90 -83 -183q-21 -22 -59 -48q-344 -228 -586 14q-138 138 -55 295q66 125 244 252q-123 63 -187 168t-63 158
q2 156 135 265q26 22 49.5 26t30 -12.5t-8 -44t-29 -39.5t-21.5 -19q-22 -22 -24 -95q0 -32 39.5 -97.5t85 -111t130.5 -84.5l22 -10q83 50 133 100q87 87 88 197q1 162 -154 336q-11 12 -1 38t35.5 50.5t51 33.5t36.5 -4z" />
    <glyph glyph-name="five" unicode="5" horiz-adv-x="1004" 
d="M357 691q1 -56 57 -112q33 -33 87 -33q123 0 192 70v542q0 21 19 48.5t47 45t47 15t19 -24.5v-1068q0 -21 -19 -48.5t-46.5 -45t-47 -15t-19.5 24.5v419q-123 -95 -276 -95q-78 0 -123 45q-69 68 -69 146q-2 186 9 554q0 21 20 48.5t47.5 44.5t46.5 14t18 -25
q-11 -366 -9 -550z" />
    <glyph glyph-name="six" unicode="6" horiz-adv-x="1198" 
d="M582 702q-36 -22 -73 -52q-73 -58 -74 -139.5t60 -133.5q74 -71 184 -71q49 0 88 7q20 104 101 209q21 28 59 57q79 61 119 21q20 -20 20 -78q0 -120 -174 -256q-14 -11 -30 -21q30 -131 30 -241q-1 -17 -6 -24.5t-26.5 -8.5t-25.5 17q-28 133 -35 223
q-90 -37 -217.5 -36.5t-213.5 88.5q-68 66 -67 157q3 151 133 273q-233 31 -233 265q0 124 126 251q59 59 130.5 92t204 33t216.5 -112q10 -13 -1 -39.5t-36.5 -50.5t-51 -31.5t-35.5 5.5q-72 95 -197 95t-174.5 -49.5t-49.5 -109.5q0 -202 220 -220q22 -1 72 7
q80 43 141 55t70.5 2.5t11 -18t-15 -45t-25.5 -45.5t-35 -25t-35 -18q-91 -22 -155 -33z" />
    <glyph glyph-name="seven" unicode="7" horiz-adv-x="1000" 
d="M563 907q-18 -51 -81 -98q-51 -38 -114 -38q-86 1 -128 74q-56 94 6 224q39 82 112 143q116 95 212 84q123 -13 178.5 -98t55.5 -194v-872q0 -21 -19 -48.5t-47 -45t-47 -15t-19 24.5v872q0 120 -70 190q-46 45 -107 52q-95 10 -131 -66q-46 -96 23 -166q48 -48 85 -6
q23 27 50 39.5t42 4t9 -29.5t-10 -31z" />
    <glyph glyph-name="eight" unicode="8" horiz-adv-x="1562" 
d="M264 458q0 463 399 676h-657q-22 0 -24.5 19t15 47t45 47t48.5 19h1203q22 0 24.5 -19t-15 -47t-45 -47t-48.5 -19h-116q-398 -28 -580 -209q-117 -117 -117 -383q0 -165 125 -290l16 -14q134 -125 332 -126.5t324 124.5q41 41 52.5 80t35.5 65t50.5 37t40 1t6.5 -35
q-52 -175 -256 -306q-157 -101 -357 -99.5t-348 137.5l-16 16q-137 138 -137 326z" />
    <glyph glyph-name="nine" unicode="9" horiz-adv-x="1603" 
d="M1271 434q-88 -223 -266 -347l-10 -6q-178 -104 -304 -102.5t-274 137.5l-16 16q-137 138 -137 326q0 315 174 504l23 24q87 87 200 148h-655q-22 0 -24.5 19t15 47t45 47t48.5 19h747q69 119 153 203q185 184 402 184q363 0 506 -385q6 -17 -8.5 -44t-41.5 -49
t-50.5 -25.5t-29.5 12.5q-133 359 -457 359q-156 0 -264 -108q-56 -57 -108 -147h354q22 0 24.5 -19t-15 -47t-45 -47t-48.5 -19h-116q-412 -28 -589 -218q-108 -117 -108 -374q0 -165 125 -290l16 -14q135 -125 250 -127q81 -1 213 75q92 66 147 208q11 26 36 50.5t50.5 33
t36.5 -4.5t1 -39z" />
    <glyph glyph-name="colon" unicode=":" horiz-adv-x="500" 
d="M89 -2q0 45 47 76q23 14 59 16q47 3 82 -41q25 -33 25 -62q0 -40 -23 -61q-35 -31 -84 -31q-52 0 -78 31q-28 33 -28 72zM89 498q0 45 47 76q23 14 59 16q47 3 82 -41q25 -33 25 -62q0 -40 -23 -61q-35 -31 -84 -31q-52 0 -78 31q-28 33 -28 72z" />
    <glyph glyph-name="semicolon" unicode=";" horiz-adv-x="500" 
d="M301 26q89 -158 -93 -285q-23 -16 -43 -15t-25 18t8 41t30 35.5t28 22.5q18 18 4 61q-5 -1 -9 -1q-52 0 -79 32t-27 74t47 73q23 14 64.5 16.5t76.5 -41.5q12 -16 18 -31zM89 498q0 45 47 76q23 14 59 16q47 3 82 -41q25 -33 25 -62q0 -40 -23 -61q-35 -31 -84 -31
q-52 0 -78 31q-28 33 -28 72z" />
    <glyph glyph-name="less" unicode="&#x3c;" horiz-adv-x="2665" 
d="M1209 545q167 0 179 -79q17 -103 -92 -216l-7 -7l-33 -30q46 -42 76 -129q44 -127 -64 -246q-16 -17 -29 -28l-29 -23q-80 -62 -187 -54q-136 10 -241 149q-139 182 -134 594q2 249 200.5 374t372.5 89q122 308 291 486l17 17q265 266 745 280q337 10 323 -753
q0 -21 -20 -48.5t-47.5 -45t-46.5 -14.5t-19 25q10 505 -132 646q-59 59 -140 57q-425 -12 -617 -214q-152 -160 -270 -501q-13 -38 -53 -68t-63 -20q-167 71 -339 -38q-70 -43 -70 -208q97 5 429 5zM141 479q-13 -22 0 -64q26 -79 106.5 -110t197.5 22v8q-11 109 -49 143
q-62 62 -121 57q-92 -9 -134 -56zM444 223q-47 -26 -133.5 -53t-151.5 -1q-116 44 -143 128q-22 67 -11 106q23 81 85 139q8 7 28 27.5t83.5 55t154 42t166.5 -74.5q42 -44 55 -164q3 -25 -4 -297t55 -314q14 -9 7 -34t-31 -51t-50.5 -37.5t-36.5 -4.5q-84 57 -76 388
q2 87 3 145zM810 223q191 -13 356 34q35 10 65.5 41.5t25 72.5t-132.5 41q-224 0 -339 -2q6 -103 25 -187zM1079 120q-105 -28 -226 -32q23 -51 52 -90q127 -167 271 -126q18 5 26.5 14t10 34.5t-17 78t-52.5 86.5t-63 35h-1z" />
    <glyph glyph-name="equal" unicode="=" 
d="M-318 -416q105 1 107 -25q3 -36 -179 -88q-96 -28 -239 -37q-68 -4 -109 19q-34 19 -36 62q-1 41 32 67q16 12 78 20q48 6 74 -2q47 -13 68 -38zM-312 -223q98 -25 93 -53q-8 -37 -195 -45q-99 -4 -236 21q-65 13 -97 46q-27 28 -16 72q11 42 50 61q18 9 80 1
q46 -6 69 -20q40 -25 52 -56z" />
    <glyph glyph-name="greater" unicode="&#x3e;" horiz-adv-x="2655" 
d="M1209 545q167 0 179 -79q17 -103 -92 -216l-7 -7l-33 -30q46 -42 76 -129q44 -127 -64 -246q-16 -17 -29 -28l-29 -23q-80 -62 -187 -54q-136 10 -241 149q-139 182 -134 594q2 249 200.5 374t372.5 89q122 308 291 486l17 17q265 266 745 280q337 10 323 -753
q0 -21 -20 -48.5t-47.5 -45t-46.5 -14.5t-19 25q10 505 -132 646q-59 59 -140 57q-425 -12 -617 -214q-152 -160 -270 -501q-13 -38 -53 -68t-63 -20q-167 71 -339 -38q-70 -43 -70 -208q97 5 429 5zM141 479q-13 -22 0 -64q26 -79 106.5 -110t197.5 22v8q-11 109 -49 143
q-62 62 -121 57q-92 -9 -134 -56zM444 223q-47 -26 -133.5 -53t-151.5 -1q-116 44 -143 128q-22 67 -11 106q23 81 85 139q8 7 28 27.5t83.5 55t154 42t166.5 -74.5q42 -44 55 -164q3 -25 -4 -297t55 -314q14 -9 7 -34t-31 -51t-50.5 -37.5t-36.5 -4.5q-84 57 -76 388
q2 87 3 145zM810 223q191 -13 356 34q35 10 65.5 41.5t25 72.5t-132.5 41q-224 0 -339 -2q6 -103 25 -187zM1079 120q-105 -28 -226 -32q23 -51 52 -90q127 -167 271 -126q18 5 26.5 14t10 34.5t-17 78t-52.5 86.5t-63 35h-1z" />
    <glyph glyph-name="question" unicode="?" horiz-adv-x="1200" 
d="M481 25q0 45 47 76q23 14 59 16q47 3 82 -41q25 -33 25 -62q0 -40 -23 -61q-35 -31 -84 -31q-52 0 -78 31q-28 33 -28 72zM543 405q0 145 120 266q50 49 117 91q48 29 78 60q63 62 63 149q0 153 -105 263l-6 6q-103 103 -245 103q-126 0 -208 -82l-5 -5q-85 -88 -85 -227
q0 -20 -16.5 -43t-40.5 -35t-40.5 -6t-16.5 26q0 193 140 339l8 8q139 139 322 139q168 0 286 -118l6 -7q120 -124 120 -303q0 -144 -120 -264q-50 -50 -120 -93q-45 -28 -75 -58q-63 -63 -63 -151v-160q0 -20 -16.5 -43t-40 -35t-40.5 -6t-17 26v160z" />
    <glyph glyph-name="at" unicode="@" 
d="M234 -208l-408 336l-120 120l24 24l408 -336l120 -120z" />
    <glyph glyph-name="A" unicode="A" horiz-adv-x="1570" 
d="M880 355l1 3q14 26 14 63q0 87 -3 166l-2 -2q-87 -88 -87 -140q0 -37 16 -57q5 -6 10 -11q21 -21 42 -22h9zM887 691q-19 278 -85 438h-65q-152 -119 -254 -219q9 -109 8 -229q0 -66 -23 -109q-22 -41 -33 -53l-20 -24q-6 -7 -28 -23q-43 -32 -92 -29q-58 3 -91 45
q-58 73 -16 169q36 80 176 225q-14 132 -44 247h-322l-24 138l28 4l393 1q20 0 26 -19l7 -24q30 -104 46 -239l211 190l51 44l56 47h77q17 0 24 -14q86 -176 108 -500h303v510l36 4h247l24 -138l-27 -4h-136v-977l-24 -24l-120 120v367h-296q2 -66 1 -136q-1 -98 -55 -162
l-21 -24q-6 -8 -28 -23q-22 -16 -48 -24q-23 -6 -48 -5q-45 3 -79 37q-7 6 -13 14q-28 35 -28 95q0 110 145 254q24 25 53 50zM361 557q16 26 16 66q0 87 -5 168q-57 -70 -82 -126q-20 -45 21 -86q26 -26 50 -22z" />
    <glyph glyph-name="B" unicode="B" horiz-adv-x="1266" 
d="M867 735q-125 106 -276 108t-194 -39q-5 -4 -5 -20q-1 -51 50 -93.5t198.5 -42.5t203.5 62q13 12 23 25zM1040 1129q39 -187 -34 -334q110 -116 120 -250q13 -180 -164 -306q-131 -93 -354 -93q-299 0 -484 178q-12 12 -6 34.5t26.5 43t43 27t34.5 -4.5
q171 -164 444 -164q214 0 302 88q50 50 43 144t-86 186q-17 -18 -36 -36q-113 -108 -301.5 -108t-257.5 69q-54 54 -52 127q3 103 115 173q91 56 253 54t285 -94q7 31 7 64q1 148 -38 202h-902l-24 138l28 4h1273l24 -138l-28 -4h-231z" />
    <glyph glyph-name="C" unicode="C" horiz-adv-x="1246" 
d="M306 341q-1 -97 108 -159q58 -32 175 -41q-17 174 6 345q-170 -2 -231 -37q-57 -33 -58 -108zM266 470q-101 68 -101 176q0 132 64 187q108 93 475 91q247 -2 311 28q13 17 17.5 81t-13.5 96h-1021l-24 138l28 4h1251l25 -138l-28 -4h-103q7 -152 -76 -234
q-24 -24 -50 -38q-88 -47 -366.5 -47t-369.5 -39q-6 -20 -6 -71q0 -84 104 -140q80 40 297.5 40t299.5 -47q133 -76 130 -212q-2 -110 -89 -197q-48 -48 -100 -73q-94 -47 -299.5 -47t-295.5 52q-136 77 -134 207q2 106 74 187zM711 138q139 2 218 35q66 41 67 110
q1 71 -51 123q-22 22 -55 41q-53 30 -188 37q-6 -67 -6 -137q0 -109 15 -209z" />
    <glyph glyph-name="D" unicode="D" horiz-adv-x="1147" 
d="M2 1271h1152l24 -138l-28 -4h-181v-977l-24 -24l-120 120v238q-21 -28 -48 -47q-153 -103 -286 -106q-151 -3 -214.5 78.5t-94.5 321.5q-5 38 -8 396h-176l-24 138zM314 827q32 -245 92 -305q59 -58 179 -56q75 2 167 59l73 87v517h-518q3 -272 7 -302z" />
    <glyph glyph-name="E" unicode="E" horiz-adv-x="1294" 
d="M992 876q63 -22 92 -65q37 -58 37 -116q0 -186 -146 -329l-13 -12q-117 -115 -294 -115q-185 0 -315 131q-42 41 -78 96q-114 172 -114 465q0 100 20 198h-183l-24 138l28 4h219q37 102 95 201q64 110 139 185q150 150 325 151q133 1 264 -98q14 -10 9.5 -32.5t-24 -44
t-43 -29.5t-36.5 2q-116 89 -228 88q-118 -1 -210 -94q-54 -53 -104 -138q-54 -94 -87 -191h974l24 -138l-27 -4h-155q-52 -129 -145 -253zM903 894q89 115 135 235h-752q-11 -69 -11 -140q0 -344 177 -520q115 -116 274 -116q125 0 192 69q89 92 89 215q0 57 -44.5 101.5
t-184.5 44.5t-227 -61q-23 -16 -43 -15t-25 18t8 41t36 40q131 91 306 91q38 0 70 -3z" />
    <glyph glyph-name="F" unicode="F" horiz-adv-x="1312" 
d="M229 667.5q0 -38.5 28 -65.5t66.5 -27t66.5 27t28 65.5t-28 66t-66.5 27.5t-66.5 -27.5t-28 -66zM994 436.5q0 -38.5 28 -65.5t67 -27t66.5 27t27.5 65.5t-27.5 65.5t-66.5 27t-67 -27t-28 -65.5zM1209 315l-57 -55q-149 -138 -336 -137q-200 1 -321 124
q-109 107 -120 255q-24 -7 -51 -7q-71 0 -120 51.5t-49 125.5t49 126t120 52q74 0 119 -52q6 -7 12 -13q29 40 69 77q147 137 343 137q112 0 204 -46l1 176h-1074l-24 138l28 4h1314l24 -138l-28 -4h-126l-1 -272q0 -38 -42 -69t-64 -10q-114 107 -263 107q-157 -1 -243 -87
q-87 -87 -86 -216q1 -139 113 -242q110 -103 260 -103q98 0 171 37q-34 13 -61 41q-50 52 -50 126t49.5 126t119.5 52t119.5 -52t49.5 -126t-49 -126z" />
    <glyph glyph-name="G" unicode="G" horiz-adv-x="1279" 
d="M1165 1129v-977l-24 -24l-120 120v377l-37 -33q-104 -93 -226 -100q-85 -5 -120 76q-10 22 -18 44q-29 -25 -64 -51q-94 -71 -197 -75q-113 -3 -179 63t-65 156q3 99 55 171q21 29 20 117q-1 90 -51 136h-144l-24 138l27 4h177q127 -65 129 -204q1 -100 -16 -146
q-15 -40 -37 -74t-22 -92q0 -64 54 -110.5t123.5 -44.5t112.5 35q42 31 83 61v433h-138l-24 138l27 4h245l24 -135v-459q16 -40 32 -56.5t42 -14.5q73 4 120 46q52 45 76 69l15 16v529l28 5h235l24 -138l-28 -4h-115z" />
    <glyph glyph-name="H" unicode="H" 
d="M-179 226q27 -69 26 -185q-1 -150 -63 -207q-21 -20 -57 -38.5t-119.5 -18.5t-121.5 38q-53 55 -53 102.5t44 91.5q14 15 33 17t30.5 -9.5t9.5 -30.5t-14.5 -31t-12.5 -17q0 -17 26 -44t82 -27q84 0 104.5 33.5t21 127.5t-13.5 130t-6 54t25.5 28t34.5 6t24 -20z" />
    <glyph glyph-name="I" unicode="I" horiz-adv-x="436" 
d="M-462 1447l60 -73l-24 -24l-37 34l-120 120q-64 64 -64 116q-1 89 90 168q55 48 213 48q197 0 372 -144q246 -203 278 -421h136l25 -138l-28 -4h-129v-977l-24 -24l-120 120v881h-168l-24 138l28 4h164q-4 149 -150 277q-173 150 -312 148q-106 -1 -165 -52
q-46 -41 -46 -110q0 -33 45 -87z" />
    <glyph glyph-name="J" unicode="J" horiz-adv-x="1172" 
d="M1025 1129q-98 -206 -291 -353q120 -58 269 -102q23 -6 16.5 -36.5t-36.5 -55.5l-213 -175l348 -146q16 -7 15 -28t-18.5 -43.5t-41 -33.5t-39.5 -4l-406 171q-21 9 -13.5 38t35.5 53l208 170q-140 46 -253 106q-184 -106 -431 -168q-23 -6 -34.5 6.5t-4.5 35t27.5 43
t43.5 26.5q174 44 310 108q-243 155 -342 388h-176l-24 138l28 4h1177l24 -138l-27 -4h-151zM325 1129q108 -184 328 -310q186 124 274 310h-602z" />
    <glyph glyph-name="K" unicode="K" horiz-adv-x="1093" 
d="M938 1129v-977l-24 -24l-120 120v238l-16 -19q-11 -13 -25 -22q-149 -99 -268 -102q-147 -3 -220 69q-8 9 -16 19q-63 80 -89 315q-4 31 -7 383h-155l-24 138l28 4h263q1 -3 1 -8q2 -242 4 -355h524v363h300l24 -138l-27 -4h-153zM794 766h-514q26 -182 72 -241l12 -14
q57 -57 176 -54q79 2 179 65l75 89v155z" />
    <glyph glyph-name="L" unicode="L" horiz-adv-x="1504" 
d="M361 768q-27 0 -63 -51q-19 -26 -19 -88q0 -147 88 -234q139 -138 274 -138q20 0 26 -16.5t-6 -40.5t-35 -40.5t-43 -16.5q-161 0 -314 152q-104 103 -104 276q0 103 53 176q99 136 201 135q15 0 30 -1q-12 96 -14 248h-437l-24 138l28 4h1510l24 -138l-28 -4h-404
q-4 -176 -22 -260q45 13 97 13q77 1 155 -103q41 -55 41 -150q0 -188 -125 -312q-175 -174 -351 -174q-20 0 -26 16.5t6 40.5t35 40.5t43 16.5q120 0 237 116q67 67 67 198q0 73 -24.5 106t-54 62t-61.5 29q-65 -1 -97 -19q-37 -52 -97 -112q-96 -96 -164 -123
q-78 -30 -269 216q-55 38 -133 38zM596 825q127 -163 199 -197q76 49 162 166v1q31 61 34 334h-441q6 -260 44 -301q1 -1 2 -3zM109 151q0 45 47 76q22 14 58 16q48 3 82 -41q26 -33 26 -62q0 -40 -24 -61q-34 -31 -84 -31q-51 0 -77 31q-28 33 -28 72z" />
    <glyph glyph-name="M" unicode="M" 
d="M-233 1416q-46 10 -15 55q34 49 34 103q0 60 -34 103q-12 15 -86 15q-72 0 -80 -15q-37 -73 -34 -103q0 -3 34 -103q25 -74 -48 -61q-54 10 -70 26q-79 82 -79 204q0 119 79 203q67 71 188 71q143 0 199 -71q80 -84 80 -203q0 -77 -80 -204q-21 -35 -88 -20z" />
    <glyph glyph-name="N" unicode="N" 
d="M-147 1600q0 71 66 119q31 22 81 25q66 5 114 -64q36 -52 36 -96q0 -63 -33 -96q-48 -48 -117 -48q-71 0 -108 48q-39 51 -39 112z" />
    <glyph glyph-name="O" unicode="O" 
d="M-911 1769q-145 103 -145 436h34q-13 -165 145 -266q140 -91 285 -117q176 -32 286 -140q123 -123 123 -260v-122h-34q0 84 -86 185q-75 88 -163 133q33 -104 33 -205v-115h-34q0 72 -42 177q-45 114 -101 187q-182 23 -301 107z" />
    <glyph glyph-name="P" unicode="P" horiz-adv-x="1101" 
d="M864 1129q-18 -192 -117.5 -245t-208.5 -53q-170 0 -226 -78q-31 -44 -30 -124q4 -195 181 -305q-18 58 -15.5 95t15.5 69q26 61 70 105q80 79 182 85q110 7 176 -59q97 -97 67 -235q-12 -56 -31 -78l-37 -43q-2 -3 -12 -12q-137 -119 -268 -108q-198 18 -319 139
t-123 289q-2 147 100 252q37 39 91 68q99 54 204.5 54t165.5 28q19 41 23 156h-754l-24 138l28 4h1109l24 -138l-28 -4h-243zM561 464q24 -198 113 -207q79 -8 158 62q22 18 17 87t-58.5 115.5t-127.5 42.5q-96 -5 -102 -100z" />
    <glyph glyph-name="Q" unicode="Q" horiz-adv-x="1119" 
d="M2 1271h1124l24 -138l-28 -4h-159v-977l-24 -24l-120 120v238l-16 -19q-11 -13 -25 -22q-148 -99 -290 -102.5t-206.5 79.5t-96.5 324q-5 38 -8 383h-179l-24 138zM819 1129h-527q1 -142 3 -221h524v221zM819 766h-514q31 -201 86.5 -256.5t154.5 -53t198 65.5l75 89v155
z" />
    <glyph glyph-name="R" unicode="R" 
d="M142 -305l-4 4q-34 34 -151.5 90t-182.5 73q-18 -32 -51 -61q-110 -100 -192 -19q-16 17 -16 38q0 66 60.5 103t130.5 42v221q0 13 13 34q10 15 32 20q23 5 32 -6q13 -18 13 -28v-250q78 -19 228 -90.5t168 -111.5q1 -2 9 -23q4 -17 -6.5 -34.5t-29 -25t-34 -0.5
t-18.5 24h-1z" />
    <glyph glyph-name="S" unicode="S" horiz-adv-x="1229" 
d="M396 429q20 88 26 186h-199q12 -40 76.5 -105t96.5 -81zM494 1125q35 -91 43 -308q2 -45 1 -88h416v396h-460zM1234 1268l24 -138l-27 -5h-133v-977l-24 -24l-120 120v371h-423q-15 -154 -38 -199q-59 -118 -142 -108q-62 7 -157 109q-89 97 -87 151q4 87 79 138
q35 23 90 23h148q-5 274 -49 334q-28 38 -65 62l-312 4l-24 138l28 4zM623 340q0 45 47 76q23 14 59 16q47 3 82 -41q25 -33 25 -62q0 -40 -23 -61q-35 -31 -84 -31q-52 0 -78 31q-28 33 -28 72z" />
    <glyph glyph-name="T" unicode="T" horiz-adv-x="1141" 
d="M887 1129q27 -88 26 -177t-92 -167q121 -60 169 -160q87 -182 -22 -343.5t-325 -170t-375 109.5q-117 87 -115 251q1 129 83 213t242.5 85t270.5 65q22 12 36 26t14 40q2 108 -54 228h-747l-24 138l28 4h1145l24 -138l-28 -4h-256zM677 702q-120 -46 -239 -46t-144.5 -27
t-26.5 -101q-1 -132 95 -203q143 -107 307.5 -100.5t215.5 82.5q63 94 -3 232q-52 107 -205 163z" />
    <glyph glyph-name="U" unicode="U" 
d="M-318 -416q105 1 107 -25q3 -36 -179 -88q-96 -28 -239 -37q-68 -4 -109 19q-34 19 -36 62q-1 41 32 67q16 12 78 20q48 6 74 -2q47 -13 68 -38zM-312 -223q98 -25 93 -53q-8 -37 -195 -45q-99 -4 -236 21q-65 13 -97 46q-27 28 -16 72q11 42 50 61q18 9 80 1
q46 -6 69 -20q40 -25 52 -56z" />
    <glyph glyph-name="V" unicode="V" horiz-adv-x="1191" 
d="M910 759q49 -77 48.5 -192t-98.5 -210q57 -75 76 -186q4 -18 -10.5 -41.5t-38 -38t-42 -12t-21.5 21.5q-21 118 -92 190q-86 -24 -210.5 -23.5t-215.5 18.5q20 -56 49 -100q9 -14 0 -37.5t-31 -42.5t-43.5 -22.5t-31.5 10.5q-62 97 -86 240q-19 8 -16 31.5t22 45.5
t42.5 31.5t37.5 0.5q99 -60 310.5 -61t253.5 42q32 31 32 85q0 127 -71 199q-144 -13 -595 -13q-20 0 -26 16.5t6 40.5t35 40.5t43 16.5q550 0 616 16q38 10 59.5 62.5t24.5 241.5h-939l-24 138l28 4h1196l24 -138l-27 -4h-146q-7 -166 -38.5 -241t-100.5 -129z" />
    <glyph glyph-name="W" unicode="W" horiz-adv-x="432" 
d="M306 1129v-977l-24 -24l-120 120v881h-164l-24 138l28 4h433l24 -138l-27 -4h-126zM85 1600q0 71 66 119q31 22 81 25q66 5 114 -64q36 -52 36 -96q0 -63 -33 -96q-48 -48 -117 -48q-71 0 -108 48q-39 51 -39 112z" />
    <glyph glyph-name="X" unicode="X" horiz-adv-x="1270" 
d="M628 514q21 65 21 245q0 52 -1 107h311v263h-587q-59 -93 -59 -271.5t108.5 -287t206.5 -56.5zM959 734h-181q-9 -193 -67 -255l-24 -25q-100 -88 -210.5 -88t-203.5 117.5t-93 274.5q0 230 90 371h-272l-24 138l28 4h1270l25 -138l-28 -4h-165v-977l-24 -24l-121 120
v486z" />
    <glyph glyph-name="Y" unicode="Y" 
d="M-975 1850q55 54 161 54q109 0 216 -53q122 -61 205 -151q127 -138 228 -353q26 -56 -2 -72q-44 -23 -103 21q-213 158 -465 156q-84 -1 -152 -69q-28 -28 -50 -71q-12 -23 -50 -13.5t-79.5 46t-62.5 78.5t-10 65q27 52 61 86q51 51 121 63q-27 26 -46 57q-25 43 -18 71
q13 52 46 85zM-805 1629q187 -36 472 -186q-65 106 -104 137q-148 116 -237 116q-73 0 -110 -37q-12 -13 -21 -30z" />
    <glyph glyph-name="Z" unicode="Z" horiz-adv-x="1126" 
d="M250 536q0 -51 36.5 -87.5t87.5 -36.5t87.5 36.5t36.5 87.5t-36.5 87.5t-87.5 36.5t-87.5 -36.5t-36.5 -87.5zM637 521q0 -100 -72.5 -170.5t-175.5 -70.5t-175.5 70.5t-72.5 170.5t72.5 170.5t175.5 70.5q57 0 104 -21v388h-495l-24 138l28 4h1126l25 -138l-28 -4h-107
v-977l-24 -24l-120 120v881h-237v-608zM55 220q0 45 47 76q22 14 58 16q48 3 82 -41q26 -33 26 -62q0 -40 -24 -61q-34 -31 -84 -31q-51 0 -77 31q-28 33 -28 72z" />
    <glyph glyph-name="bracketleft" unicode="[" horiz-adv-x="1200" 
d="M328 248v1000l24 24l120 -120v-1000l-24 -24z" />
    <glyph glyph-name="backslash" unicode="\" horiz-adv-x="1166" 
d="M550 220q-2 8 -15 7q-255 4 -347 96q-80 80 -64 183q11 74 73 138q117 121 244 152q-40 30 -66 56q-76 76 -74 175q1 57 20 102h-325l-24 138l27 4h1176l24 -138l-28 -4h-138q22 -208 -90.5 -308.5t-313.5 -108t-275 -45.5h1q-117 -70 -118 -137.5t73 -128.5
q62 -50 234 -58q9 -2 11 7q20 56 73 100q91 75 198 75q117 0 199 -73q55 -48 73 -110h-156q-12 28 -31 44q-48 40 -97 40q-55 0 -94 -40q-34 -35 -34 -99q0 -61 43 -101q48 -43 98 -43q55 0 93 39q2 2 20 37l161 1q-15 -64 -80 -116q-96 -77 -195 -77q-117 0 -200 73
q-59 52 -76 120zM709 829q133 6 192 62q21 20 21 108q-1 84 -18 130h-483q-32 -105 66 -190q129 -114 222 -110z" />
    <glyph glyph-name="bracketright" unicode="]" horiz-adv-x="1200" 
d="M721 251v1000l24 24l120 -120v-1000l-24 -24zM328 248v1000l24 24l120 -120v-1000l-24 -24z" />
    <glyph glyph-name="asciicircum" unicode="^" horiz-adv-x="1090" 
d="M938 1129v-977l-24 -24l-120 120v238l-16 -19q-11 -13 -25 -22q-149 -99 -268 -102q-147 -3 -220 69q-8 9 -16 19q-63 80 -89 315q-4 31 -7 383h-155l-24 138l28 4h263q1 -3 1 -8q2 -242 4 -355h524v363h300l24 -138l-27 -4h-153zM794 766h-514q26 -182 72 -241l12 -14
q57 -57 176 -54q79 2 179 65l75 89v155zM86 226q0 45 47 76q23 14 59 16q47 3 82 -41q25 -33 25 -62q0 -40 -23 -61q-35 -31 -84 -31q-52 0 -78 31q-28 33 -28 72z" />
    <glyph glyph-name="underscore" unicode="_" horiz-adv-x="409" 
d="M407 1129h-409l-24 138l28 4h409l24 -138z" />
    <glyph glyph-name="grave" unicode="`" horiz-adv-x="1000" 
d="M460 1000v-60h-120v60v400v60h120v-60v-400z" />
    <glyph glyph-name="a" unicode="a" horiz-adv-x="1294" 
d="M994 879q51 -19 83 -68q38 -58 38 -116q-3 -199 -153 -341q-121 -115 -300 -115q-250 0 -396 221q-113 172 -113 461q0 104 22 208h-177l-24 138l28 4h216q38 102 98 202q57 94 134 174q162 167 419 169q114 1 235 -90q96 -73 96 -278q0 -89 -19 -177h114l24 -138l-27 -4
h-155q-51 -127 -143 -250zM900 890q91 117 137 239h-751q-11 -74 -11 -151q0 -333 176 -509q116 -116 259 -116q140 0 207 69q90 92 90 215q0 73 -39 113q-61 63 -184 46q-101 -14 -201 -100q-16 -14 -64 -12q-26 1 -43 59q-5 18 11 63q5 12 50 40q68 43 363 44zM320 1271
h756q10 59 10 119q0 172 -76 229q-117 89 -228 88q-227 -1 -375 -246q-55 -91 -87 -190z" />
    <glyph glyph-name="b" unicode="b" horiz-adv-x="1150" 
d="M2 1271h1152l24 -138l-28 -4h-178v-977l-24 -24l-120 120v238q-21 -28 -48 -47q-153 -103 -271.5 -105.5t-231.5 82.5q-70 53 -88 156q-4 22 16 50.5t41.5 42.5t25 17.5t12.5 29.5t10 69q-53 51 -85 145.5t-33 202.5h-178l-24 138zM332 1052q35 -105 81 -149h415v226
h-513q5 -43 17 -77zM413 771q-21 -78 -82 -142q19 -56 62 -89q100 -76 185 -74t177 59l73 87v159h-415z" />
    <glyph glyph-name="c" unicode="c" horiz-adv-x="1171" 
d="M214 783q0 -22 16 -38t39 -16t39 16t16 38t-16 38t-39 16t-39 -16t-16 -38zM401 780h543q5 150 6 349h-950l-24 138l27 4h1191l24 -138l-27 -4h-128v-85q-1 -75 -5 -206t-12 -220.5t-23.5 -178t-36.5 -130.5q-14 -26 -33 -45l-1 -1v0q-30 -31 -72 -53q-92 -50 -241 -51
q-137 -1 -240 106l-12 13q-80 82 -81 337q-1 21 -49 21q-60 0 -102 42t-42 102t42 102t102 42t102 -42t42 -102zM938 666h-518q9 -231 67 -290l11 -12q89 -92 198 -91q130 1 180 33l14 8q25 51 42 257q4 44 6 95z" />
    <glyph glyph-name="d" unicode="d" horiz-adv-x="1343" 
d="M237 667.5q0 -38.5 28 -65.5t66.5 -27t66.5 27t28 65.5t-28 66t-66.5 27.5t-66.5 -27.5t-28 -66zM212 798q49 52 124.5 52t127.5 -66q155 215 411 215q112 0 204 -46l1 176h-1082l-24 138l28 4h1355l24 -138l-28 -4h-159l-1 -272q0 -38 -42 -69t-64 -10
q-114 107 -268 107q-152 -1 -244 -94q-80 -80 -79 -214t110 -235q113 -105 262 -105q159 0 239 83l66 69q20 21 43 28t35.5 -3.5t6 -38.5t-95.5 -112q-146 -140 -344 -139q-194 0 -321 129q-105 105 -115 249q-23 -7 -50 -7q-71 0 -120 51.5t-49 125.5t49 126z" />
    <glyph glyph-name="e" unicode="e" horiz-adv-x="1056" 
d="M266 296q2 -110 190 -106q82 2 218 50l134 94q45 45 95 19q14 -7 17 -32q10 -69 -72 -107l-191 -87q-110 -51 -249 -51q-253 0 -256 162q-1 62 25.5 106t60 78t107.5 82q-7 58 -99 165q-119 138 -119 276q0 85 25 184h-154l-24 138l28 4h1056l24 -138l-27 -4h-188
q5 -85 -5 -184q-23 -204 -113 -306q-93 -105 -222 -156q-262 -103 -261 -187zM470 574q39 19 93 40.5t103 92t66 211.5q3 25 -7 211h-468q-13 -69 -13 -144.5t77 -248.5q52 -116 149 -162z" />
    <glyph glyph-name="f" unicode="f" horiz-adv-x="1099" 
d="M519 575q61 -66 60.5 -162t-64.5 -162q37 -7 78 -7q135 0 236 82q64 52 66 147q2 104 -88 185q-85 75 -270 85q-3 0 -66.5 7.5t-237.5 7.5q-20 0 -26 16.5t6 40.5t35 40.5t43 16.5q176 0 305 -15h1q187 1 222 36q20 20 20.5 103t-42.5 133h-799l-24 138l28 4h1102
l25 -138l-28 -4h-157q41 -183 -68 -292q-21 -20 -43 -35q51 -23 89 -61q89 -89 87 -221q-3 -155 -148.5 -272.5t-326.5 -117.5q-195 0 -311 125q-61 66 -61 160t61 160t148 66t148 -66zM254 409q0 -49 34.5 -83t82.5 -34t82.5 34t34.5 83t-34.5 84t-82.5 35t-82.5 -35
t-34.5 -84z" />
    <glyph glyph-name="g" unicode="g" horiz-adv-x="1121" 
d="M250 536q0 -51 36.5 -87.5t87.5 -36.5t87.5 36.5t36.5 87.5t-36.5 87.5t-87.5 36.5t-87.5 -36.5t-36.5 -87.5zM637 521q0 -100 -72.5 -170.5t-175.5 -70.5t-175.5 70.5t-72.5 170.5t72.5 170.5t175.5 70.5q57 0 104 -21v388h-495l-24 138l28 4h1126l25 -138l-28 -4h-107
v-977l-24 -24l-120 120v881h-237v-608z" />
    <glyph glyph-name="h" unicode="h" horiz-adv-x="1077" 
d="M907 452q0 -113 -92 -202q-111 -107 -226 -107q-119 0 -245 93q-29 20 -55 47q-109 109 -109 255q0 84 26 138q15 30 38 53q31 31 66 41q39 11 59 -9q9 -9 4 -25q-6 -23 -49 -49q-30 -18 -30 -90q-1 -120 94 -215q24 -24 49 -43q113 -82 210 -82q61 0 114 53l1 1
q10 10 17 26q15 30 15 61l-1 731h-795l-24 138l28 4h1084l24 -138l-28 -4h-174z" />
    <glyph glyph-name="i" unicode="i" horiz-adv-x="387" 
d="M477 1734q222 0 420 -129l102 -96l-24 -24q-161 105 -402 105h-3q-143 0 -243 -93l-16 -16q-62 -57 -62 -120q0 -53 6 -90h137l24 -138l-27 -4h-80v-977l-24 -24l-120 120v881h-167l-24 138l28 4h144q-41 61 -41 177q9 60 30.5 91.5t57.5 65.5l38 36q98 93 243 93h3z" />
    <glyph glyph-name="j" unicode="j" horiz-adv-x="1106" 
d="M150 813.5q0 73.5 49.5 125.5t119.5 52t119.5 -52t49.5 -125q0 -20 -4 -38h355v353h-841l-24 138l28 4h1108l24 -138l-27 -4h-124v-977l-24 -24l-120 120v386h-354v-482l-24 -24l-120 120v389q-11 -1 -22 -1q-70 0 -119.5 52t-49.5 125.5zM240 798.5q0 -38.5 28 -65.5
t67 -27t66.5 27t27.5 65.5t-27.5 65.5t-66.5 27t-67 -27t-28 -65.5z" />
    <glyph glyph-name="k" unicode="k" horiz-adv-x="981" 
d="M487 492q-66 188 -188 189q-60 0 -82 -9q-32 -32 -33.5 -100t65.5 -127t166 -58q54 0 106 29q-22 39 -34 76zM628 505q138 146 144 624h-774l-24 138l28 4h986l24 -138l-27 -4h-100q-3 -105 -13 -193q-15 -130 -42.5 -219t-58.5 -149q-33 -63 -71 -104l-27 -28
q54 -72 114 -130l59 -56q12 -11 6 -34q-6 -22 -26 -43t-43 -28q-23 -6 -35 5l-60 57q-64 61 -120 138q-105 -71 -210 -72q-115 -1 -212 76q-77 62 -76 180q0 55 25 107q23 50 66 92q66 67 195 67q87 0 150 -63q55 -55 91 -159q11 -33 31 -68z" />
    <glyph glyph-name="l" unicode="l" horiz-adv-x="1506" 
d="M361 768q-27 0 -63 -51q-19 -26 -19 -88q0 -147 88 -234q139 -138 274 -138q20 0 26 -16.5t-6 -40.5t-35 -40.5t-43 -16.5q-161 0 -314 152q-104 103 -104 276q0 103 53 176q99 136 201 135q15 0 30 -1q-12 96 -14 248h-437l-24 138l28 4h1510l24 -138l-28 -4h-404
q-4 -176 -22 -260q45 13 97 13q77 1 155 -103q41 -55 41 -150q0 -188 -125 -312q-175 -174 -351 -174q-20 0 -26 16.5t6 40.5t35 40.5t43 16.5q120 0 237 116q67 67 67 198q0 73 -24.5 106t-54 62t-61.5 29q-65 -1 -97 -19q-37 -52 -97 -112q-96 -96 -164 -123
q-78 -30 -269 216q-55 38 -133 38zM596 825q127 -163 199 -197q76 49 162 166v1q31 61 34 334h-441q6 -260 44 -301q1 -1 2 -3z" />
    <glyph glyph-name="m" unicode="m" horiz-adv-x="1319" 
d="M374 1129h-388l-24 138l28 4h399q94 -31 148 -104t64 -347q2 -44 1 -87h416v396h-130l-24 138l28 4h437l24 -138l-28 -4h-163v-977l-24 -24l-120 120v371h-423q-15 -154 -38 -199q-59 -118 -142 -109q-62 7 -157 110q-89 97 -87 150q4 87 79 138q34 24 90 24h148
q-6 274 -50 334q-27 37 -64 62zM459 432q21 88 27 187h-199q11 -41 75.5 -105.5t96.5 -81.5z" />
    <glyph glyph-name="n" unicode="n" horiz-adv-x="1324" 
d="M1062 342q10 2 11 18t-3 25q-32 68 -196 255.5t-220 210.5q-48 -28 -199.5 -203.5t-166.5 -217.5v-34t25.5 -43t165.5 -17q20 0 26 -16.5t-6 -40.5t-35 -40.5t-43 -16.5q-177 0 -211 34t-35.5 98.5t55.5 143.5t180 221t214 208v202h-626l-24 138l28 4h1329l24 -138
l-28 -4h-589v-169q6 -3 255 -243q14 -14 44 -51l67 -81q87 -107 84 -159q-9 -142 -103 -179q-61 -24 -202 -25q-20 0 -26 16.5t6 40.5t35 40.5t43 16.5q80 0 121 6z" />
    <glyph glyph-name="o" unicode="o" 
d="M-845 1742q-79 104 -79 280q-2 69 -2 172h34q-5 -171 81 -282q91 -117 234 -147q133 -28 234 -96q123 -83 160 -267v-132h-34q-21 135 -160 229q-101 68 -234 96t-234 147z" />
    <glyph glyph-name="p" unicode="p" horiz-adv-x="1132" 
d="M952 1129l-1 -977l-24 -24l-120 120v238l-16 -19q-11 -13 -25 -22q-148 -99 -281 -102q-151 -4 -217.5 81t-94.5 323q-3 24 -7 382h-168l-24 138l28 4h278q4 -435 7 -458q26 -236 87 -297.5t180 -58.5q79 2 178 65l75 89v660h334l24 -138l-28 -4h-185z" />
    <glyph glyph-name="q" unicode="q" horiz-adv-x="1079" 
d="M737 783q97 -36 143 -83q74 -74 74 -199q0 -159 -149.5 -265t-335.5 -106t-303 115q-12 12 -6 34.5t26.5 43.5t43.5 27t34 -5q103 -101 256.5 -101t260.5 76q59 42 59 133q-1 120 -97 178q-139 84 -398 98q-20 2 -25 19t8 41t36 39.5t64 13.5t96 -9q170 18 243 63
q18 18 18 102t-50 131h-737l-24 138l28 4h1080l24 -138l-28 -4h-188q24 -95 -4.5 -186t-101.5 -136q-22 -13 -47 -24zM767 896l1 1z" />
    <glyph glyph-name="r" unicode="r" horiz-adv-x="1026" 
d="M849 455q0 -124 -103 -229v-1q-10 -8 -19 -16.5t-28.5 -20t-42.5 -20.5q-65 -25 -163 -25q-126 0 -207 78l-11 10q-94 91 -94 223q0 141 109 251q14 13 29 26q102 86 248 86q100 0 168 -46v358h-737l-24 138l28 4h1033l24 -138l-28 -4h-182v-674zM735 471q-2 5 -2 12
q0 98 -59 157q-5 6 -14 13q-59 50 -151 50q-98 0 -148 -42q-8 -6 -14 -13q-52 -52 -52 -136q0 -105 79 -182l10 -9q66 -64 167 -64q78 0 121 16q14 6 17 9h1q45 46 45 115v74z" />
    <glyph glyph-name="s" unicode="s" horiz-adv-x="1227" 
d="M396 429q20 88 26 186h-199q12 -40 76.5 -105t96.5 -81zM494 1125q35 -91 43 -308q2 -45 1 -88h416v396h-460zM1234 1268l24 -138l-27 -5h-133v-977l-24 -24l-120 120v371h-423q-15 -154 -38 -199q-59 -118 -142 -108q-62 7 -157 109q-89 97 -87 151q4 87 79 138
q35 23 90 23h148q-5 274 -49 334q-28 38 -65 62l-312 4l-24 138l28 4z" />
    <glyph glyph-name="t" unicode="t" horiz-adv-x="1119" 
d="M869 1129q27 -88 26 -171t-73 -155q-34 -34 -81 -62q-147 -85 -354 -85q-86 0 -111.5 -27t-26.5 -101q-1 -132 95 -203q150 -111 321 -100q122 8 243 121q21 20 43.5 25t33 -8t3 -36t-29.5 -43q-172 -161 -357 -173.5t-351 110.5q-117 87 -115 251q1 129 83 213t242.5 85
t270.5 65q22 12 36 26t14 40q2 108 -54 228h-729l-24 138l28 4h1119l24 -138l-28 -4h-248z" />
    <glyph glyph-name="u" unicode="u" 
d="M-321 -141q102 -9 102 -42q0 -45 -181 -93q-96 -26 -236 -24q-67 1 -105 33q-32 27 -30 81q2 51 36 81q16 14 78 18q47 3 72 -9q45 -21 63 -54z" />
    <glyph glyph-name="v" unicode="v" horiz-adv-x="1244" 
d="M562 289q-5 16 -23 15q-245 -3 -345 97q-82 81 -64 200q12 76 86.5 151t163.5 118q130 65 546 57v202h-929l-25 138l28 4h1254l24 -138l-27 -4h-211v-251q0 -29 -29.5 -58t-58.5 -28q-137 7 -333.5 -1t-255.5 -45q-120 -76 -120.5 -141t68.5 -121.5t231 -63.5q16 0 23 19
q17 52 68 97q83 73 200 73t199 -73q55 -49 73 -110l-156 -1q-10 20 -26 36q-38 40 -93 40t-93.5 -39.5t-38.5 -95.5t38.5 -95.5t93.5 -39.5q79 0 117 71l161 1q-17 -67 -87.5 -129.5t-184.5 -62.5t-203 73q-53 44 -71 105z" />
    <glyph glyph-name="w" unicode="w" horiz-adv-x="427" 
d="M306 1129v-977l-24 -24l-120 120v881h-164l-24 138l28 4h433l24 -138l-27 -4h-126z" />
    <glyph glyph-name="x" unicode="x" horiz-adv-x="1328" 
d="M826 143q-366 0 -541 175q-106 106 -106.5 278.5t146.5 263.5q74 45 161 45q149 0 229 -78q82 103 92 302h-809l-24 138l28 4h1336l25 -138l-28 -4h-419q-6 -58 -18 -110q199 -180 330 -629q6 -18 -7 -41.5t-36 -39.5t-43 -15t-25 18q-115 395 -273 563
q-50 -97 -133 -165q-50 -40 -71 -10q-64 91 -212 91q-72 0 -104 -32.5t-31 -113.5q0 -163 128 -260q168 -128 463 -128q20 0 26 -16.5t-6 -40.5t-35 -40.5t-43 -16.5z" />
    <glyph glyph-name="y" unicode="y" 
d="M-1193 1708q82 82 253 82q304 0 703 -377q41 -38 59 -79.5t3 -61.5t-55 -7q-48 16 -80 51q-237 266 -490 266q-138 0 -202 -65q-13 -13 -24 -30q-13 -21 -51.5 -9.5t-80 49t-61 79t-5.5 63.5q13 21 31 39z" />
    <glyph glyph-name="z" unicode="z" horiz-adv-x="1100" 
d="M546 156q0 46 47 76q22 14 58 16q48 4 82 -41q26 -33 26 -61q0 -40 -24 -61q-34 -31 -84 -31q-51 0 -77 31q-28 32 -28 71zM150 813.5q0 73.5 49.5 125.5t119.5 52t119.5 -52t49.5 -125q0 -20 -4 -38h355v353h-841l-24 138l28 4h1108l24 -138l-27 -4h-124v-977l-24 -24
l-120 120v386h-354v-482l-24 -24l-120 120v389q-11 -1 -22 -1q-70 0 -119.5 52t-49.5 125.5zM240 798.5q0 -38.5 28 -65.5t67 -27t66.5 27t27.5 65.5t-27.5 65.5t-66.5 27t-67 -27t-28 -65.5z" />
    <glyph glyph-name="braceleft" unicode="{" horiz-adv-x="1200" 
d="M821 1340q-77 0 -106.5 -36t-29.5 -104v-400v-3v-3q0 -36 -7 -69.5t-25 -67.5t-45 -59q8 -6 15 -14q26 -28 43 -75t19 -108v-401v-2v-2v-2.5v-1.5q0 -74 36.5 -103t103.5 -29v-120q-60 0 -107 16t-75 41.5t-46 59.5t-25 66t-7 66v2.5v2.5v3v3v399q-2 67 -31 104t-105 37
v0h-1h-1h-2v120h3q66 1 101 30q36 29 36 106v2v2v400q0 60 16 106.5t41 75t59.5 46.5t68 25t69.5 7h3h3v-120h-2h-2z" />
    <glyph glyph-name="bar" unicode="|" horiz-adv-x="1038" 
d="M804 354q54 -55 125 -112q13 -10 8 -32.5t-25 -43.5t-43 -29t-36 3q-98 80 -162 152q-116 -42 -245 -43t-210 80.5t-57 192.5q13 60 57.5 112t89.5 71t136 20q160 2 239 -198q20 -50 64 -106q79 35 98.5 71t19.5 75q0 136 -111 211.5t-556 75.5q-28 0 -28 28v247h-170
l-24 138l28 4l1042 1l25 -138l-28 -5h-759v-161q441 -2 568 -89t127 -254q0 -113 -92 -207q-34 -35 -81 -64zM571 445q-66 167 -194 166q-73 -1 -90.5 -19.5t-18.5 -72t65 -105.5q98 -76 275 -39q-23 36 -37 70z" />
    <glyph glyph-name="braceright" unicode="}" horiz-adv-x="1200" 
d="M406 1460q36 0 69.5 -7t68 -25t59.5 -46.5t41 -75t16 -106.5v-400v-2v-2q0 -77 36 -106q35 -29 101 -30h3v-120h-2h-1h-1v0q-76 0 -105 -37t-31 -104v-399v-3v-3v-2.5v-2.5q0 -32 -6.5 -63.5t-24 -66t-45.5 -60t-75.5 -42.5t-108.5 -17v120q67 0 103.5 29t36.5 103v1.5
v2.5v2v2v401q2 61 19 108t43 75q7 8 15 14q-27 25 -45 59t-25 67.5t-7 69.5v3v3v400q0 68 -29.5 104t-106.5 36h-2h-2v120h3h3z" />
    <glyph glyph-name="asciitilde" unicode="~" horiz-adv-x="627" 
d="M625 1129h-627l-24 138l28 4h627l24 -138zM546 1715q0 -108 -68 -203q-55 -80 -162 -80q-101 0 -162 80q-68 87 -68 203q0 21 14 36t34 15t34 -15t14 -36q0 -35 39 -77q34 -37 94 -37q57 0 95.5 36.5t37.5 75.5q-1 19 14 36q14 15 35 15q22 1 35 -14q14 -15 14 -35z" />
    <glyph glyph-name="sterling" unicode="&#xa3;" horiz-adv-x="1000" 
d="M780 1141h-5h-6q-73 0 -127 -17t-96 -55.5t-64 -105.5q-14 -45 -19 -103h137v-120h-140v-280h140v-120h-140q-7 -178 -63 -280h403v-120h-600v120q130 0 140 280h-140v120h140v280h-140v120h143q13 185 109 285q111 116 317 116h6.5h6.5q7 0 21 -1l-5 -120q-13 1 -18 1z
" />
    <glyph glyph-name="currency" unicode="&#xa4;" horiz-adv-x="1200" 
d="M256 600q0 -141 101 -240q101 -100 243 -100t243 100q101 99 101 240t-101 240q-101 100 -243 100t-243 -100q-101 -99 -101 -240zM233 318q-97 121 -97 282t97 282l-76 76l86 84l75 -76q122 94 282.5 94t281.5 -94l75 75l86 -84l-75 -76q96 -120 96 -281t-97 -282
l76 -76l-86 -84l-75 76q-122 -94 -282 -94t-281 94l-77 -77l-84 86z" />
    <glyph glyph-name="logicalnot" unicode="&#xac;" 
d="M-244 -186q-16 42 -47 42.5t-48.5 -20.5t-17.5 -51t17.5 -51t46.5 -21q32 1 48 41l87 1q-7 -45 -43.5 -82.5t-92.5 -37.5h-1h-1q-56 0 -91.5 34.5t-39.5 52.5q-7 23 -10 23h-10q-72 0 -114 50t-42 100q0 107 125 184q50 31 174 31q23 0 48 -1v115h65v-148
q0 -18 -15.5 -36t-31.5 -18l-75 2q-135 0 -179.5 -33t-44.5 -68v-1q0 -35 36 -67t64 -34q4 0 9.5 18.5t39 53.5t92 35t92.5 -36q37 -37 45 -78h-85z" />
    <glyph glyph-name="uni0964" unicode="&#x964;" horiz-adv-x="796" 
d="M328 248v1000l24 24l120 -120v-1000l-24 -24z" />
    <glyph glyph-name="uni0965" unicode="&#x965;" horiz-adv-x="1200" 
d="M721 251v1000l24 24l120 -120v-1000l-24 -24zM328 248v1000l24 24l120 -120v-1000l-24 -24z" />
    <glyph glyph-name="uni0A01" unicode="&#xa01;" 
d="M-148 2000q0 71 66 119q31 22 80 25q67 5 114 -64q36 -52 36 -96q0 -63 -32 -96q-49 -48 -118 -48q-71 0 -108 48q-38 51 -38 112zM322 1549q-134 -117 -322 -117t-322 117q-138 120 -138 291h120q0 -117 96 -201q100 -87 244 -87t244 87q96 84 96 201h120
q0 -171 -138 -291z" />
    <glyph glyph-name="uni0A02" unicode="&#xa02;" 
d="M-147 1600q0 71 66 119q31 22 81 25q66 5 114 -64q36 -52 36 -96q0 -63 -33 -96q-48 -48 -117 -48q-71 0 -108 48q-39 51 -39 112z" />
    <glyph glyph-name="uni0A03" unicode="&#xa03;" horiz-adv-x="1200" 
d="M416 383.5q76 76.5 184 76.5t184 -76.5t76 -184t-76 -183.5t-184 -76t-184 76t-76 183.5t76 184zM460 199.5q0 -58.5 41 -99t99 -40.5t99 40.5t41 99t-41 99.5t-99 41t-99 -41t-41 -99.5zM416 1184q76 76 184 76t184 -76t76 -184t-76 -184t-184 -76t-184 76t-76 184
t76 184zM460 1000q0 -58 41 -99t99 -41t99 41t41 99t-41 99t-99 41t-99 -41t-41 -99z" />
    <glyph glyph-name="uni0A05" unicode="&#xa05;" horiz-adv-x="1580" 
d="M880 355l1 3q14 26 14 63q0 87 -3 166l-2 -2q-87 -88 -87 -140q0 -37 16 -57q5 -6 10 -11q21 -21 42 -22h9zM887 691q-19 278 -85 438h-65q-152 -119 -254 -219q9 -109 8 -229q0 -66 -23 -109q-22 -41 -33 -53l-20 -24q-6 -7 -28 -23q-43 -32 -92 -29q-58 3 -91 45
q-58 73 -16 169q36 80 176 225q-14 132 -44 247h-322l-24 138l28 4l393 1q20 0 26 -19l7 -24q30 -104 46 -239l211 190l51 44l56 47h77q17 0 24 -14q86 -176 108 -500h303v510l36 4h247l24 -138l-27 -4h-136v-977l-24 -24l-120 120v367h-296q2 -66 1 -136q-1 -98 -55 -162
l-21 -24q-6 -8 -28 -23q-22 -16 -48 -24q-23 -6 -48 -5q-45 3 -79 37q-7 6 -13 14q-28 35 -28 95q0 110 145 254q24 25 53 50zM361 557q16 26 16 66q0 87 -5 168q-57 -70 -82 -126q-20 -45 21 -86q26 -26 50 -22z" />
    <glyph glyph-name="uni0A06" unicode="&#xa06;" horiz-adv-x="2001" 
d="M361 557q24 39 11 234q-57 -70 -82 -126q-20 -45 21 -86q26 -26 50 -22zM689 387q0 127 198 304q-19 278 -85 438h-65q-152 -119 -254 -219q22 -267 -15 -338q-22 -41 -33 -53l-20 -24q-6 -7 -38.5 -31t-86 -21t-86.5 45q-58 73 -19 161t179 233q-14 132 -44 247h-322
l-24 138l28 4l393 1q20 0 26 -19l7 -24q30 -104 46 -239l318 281h77q17 0 24 -14q86 -176 108 -500h303v510l36 4h669l24 -138l-27 -4h-126v-977l-24 -24l-120 120v881h-288v-977l-24 -24l-120 120v367h-296q2 -66 1 -150t-55 -148l-21 -24q-48 -56 -124 -52q-54 3 -87 44.5
t-33 101.5zM892 587q-88 -87 -88.5 -133t10 -59t23.5 -26q16 -16 43 -14q15 26 15 89.5t-3 142.5z" />
    <glyph glyph-name="uni0A07" unicode="&#xa07;" horiz-adv-x="1424" 
d="M846 574q39 19 93 40.5t103 92t66 211.5q3 25 -7 211h-468q-13 -69 -13 -144.5t77 -248.5q52 -116 149 -162zM642 296q2 -110 190 -106q82 2 218 50l134 94q45 45 95 19q14 -7 17 -32q10 -69 -72 -107l-191 -87q-110 -51 -249 -51q-253 0 -256 162q-2 95 86 184
q33 34 107 82q-7 58 -99 165q-119 138 -119 276q0 85 25 184h-219v-977l-24 -24l-120 120v881h-167l-24 138l28 4h144q-41 61 -41 177q9 60 30.5 91.5t57.5 65.5l38 36q98 93 243 93h3q222 0 420 -129l102 -96l-24 -24q-161 105 -402 105h-3q-143 0 -243 -93l-16 -16
q-62 -57 -62 -115t6 -95h1179l24 -138l-27 -4h-188q5 -85 -5 -184q-23 -204 -114.5 -307.5t-220.5 -154.5q-262 -103 -261 -187z" />
    <glyph glyph-name="uni0A08" unicode="&#xa08;" horiz-adv-x="1449" 
d="M563 1447l61 -73l-24 -24l-37 34l-121 120q-64 64 -63 116q-2 89 90 168q55 48 213 48q196 0 371 -144q246 -203 278 -421h137l24 -138l-28 -4h-128v-977l-24 -24l-120 120v881h-325q5 -85 -5 -184q-23 -204 -114.5 -307.5t-220.5 -154.5q-262 -103 -261 -187
q2 -110 190 -106q82 2 218 50l134 94q45 45 95 19q14 -7 17 -32q10 -69 -72 -107l-191 -87q-110 -51 -249 -51q-253 0 -256 162q-2 95 86 184q33 34 107 82q-7 58 -99 165q-119 138 -119 276q0 85 25 184h-154l-24 138l28 4h1190q-4 149 -150 277q-173 150 -312 148
q-107 -1 -159.5 -47t-52.5 -115q0 -33 45 -87zM470 574q39 19 93 40.5t103 92t66 211.5q3 25 -7 211h-468q-13 -69 -13 -144.5t77 -248.5q52 -116 149 -162z" />
    <glyph glyph-name="uni0A09" unicode="&#xa09;" horiz-adv-x="1285" 
d="M923 39q102 -9 102 -42q0 -45 -181 -93q-96 -26 -236 -24q-67 1 -105 33q-32 27 -30 81q2 51 36 81q16 14 78 18q47 3 72 -9q45 -21 63 -54zM994 879q51 -19 83 -68q38 -58 38 -116q-3 -199 -153 -341q-121 -115 -300 -115q-250 0 -396 221q-113 172 -113 461
q0 104 22 208h-177l-24 138l28 4h216q38 102 98 202q57 94 134 174q162 167 419 169q114 1 235 -90q96 -73 96 -278q0 -89 -19 -177h114l24 -138l-27 -4h-155q-51 -127 -143 -250zM900 890q91 117 137 239h-751q-11 -74 -11 -151q0 -333 176 -509q116 -116 259 -116
q140 0 207 69q90 92 90 215q0 73 -39 113q-61 63 -184 46q-101 -14 -201 -100q-16 -14 -64 -12q-26 1 -43 59q-5 18 11 63q5 12 50 40q68 43 363 44zM320 1271h756q10 59 10 119q0 172 -76 229q-117 89 -228 88q-227 -1 -375 -246q-55 -91 -87 -190z" />
    <glyph glyph-name="uni0A0A" unicode="&#xa0a;" horiz-adv-x="1282" 
d="M926 -236q105 1 107 -25q3 -36 -179 -88q-96 -28 -239 -37q-68 -4 -109 19q-34 19 -36 62q-1 41 32 67q16 12 78 20q48 6 74 -2q47 -13 68 -38zM932 -43q98 -25 93 -53q-8 -37 -195 -45q-99 -4 -236 21q-65 13 -97 46q-27 28 -16 72q11 42 50 61q18 9 80 1q46 -6 69 -20
q40 -25 52 -56zM994 879q51 -19 83 -68q38 -58 38 -116q-3 -199 -153 -341q-121 -115 -300 -115q-250 0 -396 221q-113 172 -113 461q0 104 22 208h-177l-24 138l28 4h216q38 102 98 202q57 94 134 174q162 167 419 169q114 1 235 -90q96 -73 96 -278q0 -89 -19 -177h114
l24 -138l-27 -4h-155q-51 -127 -143 -250zM900 890q91 117 137 239h-751q-11 -74 -11 -151q0 -333 176 -509q116 -116 259 -116q140 0 207 69q90 92 90 215q0 73 -39 113q-61 63 -184 46q-101 -14 -201 -100q-16 -14 -64 -12q-26 1 -43 59q-5 18 11 63q5 12 50 40
q68 43 363 44zM320 1271h756q10 59 10 119q0 172 -76 229q-117 89 -228 88q-227 -1 -375 -246q-55 -91 -87 -190z" />
    <glyph glyph-name="uni0A0B" unicode="&#xa0b;" horiz-adv-x="2000" 
 />
    <glyph glyph-name="uni0A0C" unicode="&#xa0c;" horiz-adv-x="2000" 
 />
    <glyph glyph-name="uni0A0D" unicode="&#xa0d;" horiz-adv-x="2000" 
 />
    <glyph glyph-name="uni0A0E" unicode="&#xa0e;" horiz-adv-x="2000" 
 />
    <glyph glyph-name="uni0A0F" unicode="&#xa0f;" horiz-adv-x="1046" 
d="M-178 1669q76 121 284 121q304 0 703 -377q41 -38 59 -80q18 -41 2 -62h188l24 -138l-27 -4h-188q5 -85 -5 -184q-23 -204 -114.5 -307.5t-220.5 -154.5q-262 -103 -261 -187q2 -110 190 -106q82 2 218 50l134 94q45 45 95 19q14 -7 17 -32q10 -69 -72 -107l-191 -87
q-110 -51 -249 -51q-253 0 -256 162q-2 95 86 184q33 34 107 82q-7 58 -99 165q-119 138 -119 276q0 85 25 184h-154l-24 138l28 4h797q-37 16 -63 45q-237 266 -490 266q-167 0 -226 -95q-13 -21 -51.5 -9.5t-80 49t-61 79t-5.5 63.5zM470 574q39 19 93 40.5t103 92
t66 211.5q3 25 -7 211h-468q-13 -69 -13 -144.5t77 -248.5q52 -116 149 -162z" />
    <glyph glyph-name="uni0A10" unicode="&#xa10;" horiz-adv-x="1569" 
d="M771 1632q187 -36 471 -186q-64 106 -103 137q-149 115 -230 115q-106 0 -138 -66zM689 387q0 127 198 304q-19 278 -85 438h-65q-152 -119 -254 -219q22 -267 -15 -338q-22 -41 -33 -53l-20 -24q-6 -7 -38.5 -31t-86 -21t-86.5 45q-58 73 -19 161t179 233
q-14 132 -44 247h-322l-24 138l28 4l393 1q20 0 26 -19l7 -24q30 -104 46 -239l318 281h77q17 0 24 -14q86 -176 108 -500h303v510l36 4h21q-26 5 -55 27q-213 158 -466 156q-84 0 -152 -69q-28 -28 -50 -71q-12 -23 -49.5 -13.5t-79 46t-63 79t-9.5 65.5q65 129 182 148
q-28 27 -50 64q-43 74 32 149q54 55 161.5 55t222.5 -57.5t198 -147.5q127 -138 227 -352q32 -68 -19 -79h196l24 -138l-27 -4h-136v-977l-24 -24l-120 120v367h-296q2 -66 1 -150t-55 -148l-21 -24q-48 -56 -124 -52q-54 3 -87 44.5t-33 101.5zM361 557q24 39 11 234
q-57 -70 -82 -126q-20 -45 21 -86q26 -26 50 -22zM892 587q-88 -87 -88.5 -133t10 -59t23.5 -26q16 -16 43 -14q15 26 15 89.5t-3 142.5z" />
    <glyph glyph-name="uni0A13" unicode="&#xa13;" horiz-adv-x="1284" 
d="M992 876q63 -22 92 -65q37 -58 37 -116q0 -186 -146 -329l-13 -12q-117 -115 -294 -115q-185 0 -315 131q-42 41 -78 96q-114 172 -114 465q0 100 20 198h-183l-24 138l28 4h219q37 102 95 201q64 110 139 185q150 150 325 151q133 1 264 -98q14 -10 9.5 -32.5t-24 -44
t-43 -29.5t-36.5 2q-116 89 -228 88q-118 -1 -210 -94q-54 -53 -104 -138q-54 -94 -87 -191h974l24 -138l-27 -4h-155q-52 -129 -145 -253zM903 894q89 115 135 235h-752q-11 -69 -11 -140q0 -344 177 -520q115 -116 274 -116q125 0 192 69q89 92 89 215q0 57 -44.5 101.5
t-184.5 44.5t-227 -61q-23 -16 -43 -15t-25 18t8 41t36 40q131 91 306 91q38 0 70 -3z" />
    <glyph glyph-name="uni0A14" unicode="&#xa14;" horiz-adv-x="1566" 
d="M658 1769q-145 103 -145 436h34q-14 -165 145 -266q139 -91 284 -117q176 -32 286 -140q123 -123 123 -260l1 -122h-34q0 84 -86 185q-75 88 -163 133q32 -104 32 -205v-115h-34q0 72 -41 177q-46 114 -102 187q-182 23 -300 107zM880 355l1 3q14 26 14 63q0 87 -3 166
l-2 -2q-87 -88 -87 -140q0 -37 16 -57q5 -6 10 -11q21 -21 42 -22h9zM887 691q-19 278 -85 438h-65q-152 -119 -254 -219q9 -109 8 -229q0 -66 -23 -109q-22 -41 -33 -53l-20 -24q-6 -7 -28 -23q-43 -32 -92 -29q-58 3 -91 45q-58 73 -16 169q36 80 176 225q-14 132 -44 247
h-322l-24 138l28 4l393 1q20 0 26 -19l7 -24q30 -104 46 -239l211 190l51 44l56 47h77q17 0 24 -14q86 -176 108 -500h303v510l36 4h247l24 -138l-27 -4h-136v-977l-24 -24l-120 120v367h-296q2 -66 1 -136q-1 -98 -55 -162l-21 -24q-6 -8 -28 -23q-22 -16 -48 -24
q-23 -6 -48 -5q-45 3 -79 37q-7 6 -13 14q-28 35 -28 95q0 110 145 254q24 25 53 50zM361 557q16 26 16 66q0 87 -5 168q-57 -70 -82 -126q-20 -45 21 -86q26 -26 50 -22z" />
    <glyph glyph-name="uni0A15" unicode="&#xa15;" horiz-adv-x="978" 
d="M487 492q-66 188 -188 189q-60 0 -82 -9q-32 -32 -33.5 -100t65.5 -127t166 -58q54 0 106 29q-22 39 -34 76zM628 505q138 146 144 624h-774l-24 138l28 4h986l24 -138l-27 -4h-100q-3 -105 -13 -193q-15 -130 -42.5 -219t-58.5 -149q-33 -63 -71 -104l-27 -28
q54 -72 114 -130l59 -56q12 -11 6 -34q-6 -22 -26 -43t-43 -28q-23 -6 -35 5l-60 57q-64 61 -120 138q-105 -71 -210 -72q-115 -1 -212 76q-77 62 -76 180q0 55 25 107q23 50 66 92q66 67 195 67q87 0 150 -63q55 -55 91 -159q11 -33 31 -68z" />
    <glyph glyph-name="uni0A16" unicode="&#xa16;" horiz-adv-x="1079" 
d="M938 1129v-977l-24 -24l-120 120v238l-16 -19q-11 -13 -25 -22q-149 -99 -268 -102q-147 -3 -220 69q-8 9 -16 19q-63 80 -89 315q-4 31 -7 383h-155l-24 138l28 4h263q1 -3 1 -8q2 -242 4 -355h524v363h300l24 -138l-27 -4h-153zM794 766h-514q26 -182 72 -241l12 -14
q57 -57 176 -54q79 2 179 65l75 89v155z" />
    <glyph glyph-name="uni0A17" unicode="&#xa17;" horiz-adv-x="1122" 
d="M250 536q0 -51 36.5 -87.5t87.5 -36.5t87.5 36.5t36.5 87.5t-36.5 87.5t-87.5 36.5t-87.5 -36.5t-36.5 -87.5zM637 521q0 -100 -72.5 -170.5t-175.5 -70.5t-175.5 70.5t-72.5 170.5t72.5 170.5t175.5 70.5q57 0 104 -21v388h-495l-24 138l28 4h1126l25 -138l-28 -4h-107
v-977l-24 -24l-120 120v881h-237v-608z" />
    <glyph glyph-name="uni0A18" unicode="&#xa18;" horiz-adv-x="1270" 
d="M1165 1129v-977l-24 -24l-120 120v377l-37 -33q-104 -93 -226 -100q-85 -5 -120 76q-10 22 -18 44q-29 -25 -64 -51q-94 -71 -197 -75q-113 -3 -179 63t-65 156q3 99 55 171q21 29 20 117q-1 90 -51 136h-144l-24 138l27 4h177q127 -65 129 -204q1 -100 -16 -146
q-15 -40 -37 -74t-22 -92q0 -64 54 -110.5t123.5 -44.5t112.5 35q42 31 83 61v433h-138l-24 138l27 4h245l24 -135v-459q16 -40 32 -56.5t42 -14.5q73 4 120 46q52 45 76 69l15 16v529l28 5h235l24 -138l-28 -4h-115z" />
    <glyph glyph-name="uni0A19" unicode="&#xa19;" horiz-adv-x="1039" 
d="M804 354q54 -55 125 -112q13 -10 8 -32.5t-25 -43.5t-43 -29t-36 3q-98 80 -162 152q-116 -42 -245 -43t-210 80.5t-57 192.5q13 60 57.5 112t89.5 71t136 20q160 2 239 -198q20 -50 64 -106q79 35 98.5 71t19.5 75q0 136 -111 211.5t-556 75.5q-28 0 -28 28v247h-170
l-24 138l28 4l1042 1l25 -138l-28 -5h-759v-161q441 -2 568 -89t127 -254q0 -113 -92 -207q-34 -35 -81 -64zM571 445q-66 167 -194 166q-73 -1 -90.5 -19.5t-18.5 -72t65 -105.5q98 -76 275 -39q-23 36 -37 70z" />
    <glyph glyph-name="uni0A1A" unicode="&#xa1a;" horiz-adv-x="1184" 
d="M214 783q0 -22 16 -38t39 -16t39 16t16 38t-16 38t-39 16t-39 -16t-16 -38zM401 780h543q5 150 6 349h-950l-24 138l27 4h1191l24 -138l-27 -4h-128v-85q-1 -75 -5 -206t-12 -220.5t-23.5 -178t-36.5 -130.5q-14 -26 -33 -45l-1 -1v0q-30 -31 -72 -53q-92 -50 -241 -51
q-137 -1 -240 106l-12 13q-80 82 -81 337q-1 21 -49 21q-60 0 -102 42t-42 102t42 102t102 42t102 -42t42 -102zM938 666h-518q9 -231 67 -290l11 -12q89 -92 198 -91q130 1 180 33l14 8q25 51 42 257q4 44 6 95z" />
    <glyph glyph-name="uni0A1B" unicode="&#xa1b;" horiz-adv-x="1247" 
d="M306 341q-1 -97 108 -159q58 -32 175 -41q-17 174 6 345q-170 -2 -231 -37q-57 -33 -58 -108zM266 470q-101 68 -101 176q0 132 64 187q108 93 475 91q247 -2 311 28q13 17 17.5 81t-13.5 96h-1021l-24 138l28 4h1251l25 -138l-28 -4h-103q7 -152 -76 -234
q-24 -24 -50 -38q-88 -47 -366.5 -47t-369.5 -39q-6 -20 -6 -71q0 -84 104 -140q80 40 297.5 40t299.5 -47q133 -76 130 -212q-2 -110 -89 -197q-48 -48 -100 -73q-94 -47 -299.5 -47t-295.5 52q-136 77 -134 207q2 106 74 187zM711 138q139 2 218 35q66 41 67 110
q1 71 -51 123q-22 22 -55 41q-53 30 -188 37q-6 -67 -6 -137q0 -109 15 -209z" />
    <glyph glyph-name="uni0A1C" unicode="&#xa1c;" horiz-adv-x="1104" 
d="M150 813.5q0 73.5 49.5 125.5t119.5 52t119.5 -52t49.5 -125q0 -20 -4 -38h355v353h-841l-24 138l28 4h1108l24 -138l-27 -4h-124v-977l-24 -24l-120 120v386h-354v-482l-24 -24l-120 120v389q-11 -1 -22 -1q-70 0 -119.5 52t-49.5 125.5zM240 798.5q0 -38.5 28 -65.5
t67 -27t66.5 27t27.5 65.5t-27.5 65.5t-66.5 27t-67 -27t-28 -65.5z" />
    <glyph glyph-name="uni0A1D" unicode="&#xa1d;" horiz-adv-x="1177" 
d="M1025 1129q-98 -206 -291 -353q120 -58 269 -102q23 -6 16.5 -36.5t-36.5 -55.5l-213 -175l348 -146q16 -7 15 -28t-18.5 -43.5t-41 -33.5t-39.5 -4l-406 171q-21 9 -13.5 38t35.5 53l208 170q-140 46 -253 106q-184 -106 -431 -168q-23 -6 -34.5 6.5t-4.5 35t27.5 43
t43.5 26.5q174 44 310 108q-243 155 -342 388h-176l-24 138l28 4h1177l24 -138l-27 -4h-151zM325 1129q108 -184 328 -310q186 124 274 310h-602z" />
    <glyph glyph-name="uni0A1E" unicode="&#xa1e;" horiz-adv-x="1168" 
d="M550 220q-2 8 -15 7q-255 4 -347 96q-80 80 -64 183q11 74 73 138q117 121 244 152q-40 30 -66 56q-76 76 -74 175q1 57 20 102h-325l-24 138l27 4h1176l24 -138l-28 -4h-138q22 -208 -90.5 -308.5t-313.5 -108t-275 -45.5h1q-117 -70 -118 -137.5t73 -128.5
q62 -50 234 -58q9 -2 11 7q20 56 73 100q91 75 198 75q117 0 199 -73q55 -48 73 -110h-156q-12 28 -31 44q-48 40 -97 40q-55 0 -94 -40q-34 -35 -34 -99q0 -61 43 -101q48 -43 98 -43q55 0 93 39q2 2 20 37l161 1q-15 -64 -80 -116q-96 -77 -195 -77q-117 0 -200 73
q-59 52 -76 120zM709 829q133 6 192 62q21 20 21 108q-1 84 -18 130h-483q-32 -105 66 -190q129 -114 222 -110z" />
    <glyph glyph-name="uni0A1F" unicode="&#xa1f;" horiz-adv-x="1119" 
d="M869 1129q27 -88 26 -171t-73 -155q-34 -34 -81 -62q-147 -85 -354 -85q-86 0 -111.5 -27t-26.5 -101q-1 -132 95 -203q150 -111 321 -100q122 8 243 121q21 20 43.5 25t33 -8t3 -36t-29.5 -43q-172 -161 -357 -173.5t-351 110.5q-117 87 -115 251q1 129 83 213t242.5 85
t270.5 65q22 12 36 26t14 40q2 108 -54 228h-729l-24 138l28 4h1119l24 -138l-28 -4h-248z" />
    <glyph glyph-name="uni0A20" unicode="&#xa20;" horiz-adv-x="1145" 
d="M887 1129q27 -88 26 -177t-92 -167q121 -60 169 -160q87 -182 -22 -343.5t-325 -170t-375 109.5q-117 87 -115 251q1 129 83 213t242.5 85t270.5 65q22 12 36 26t14 40q2 108 -54 228h-747l-24 138l28 4h1145l24 -138l-28 -4h-256zM677 702q-120 -46 -239 -46t-144.5 -27
t-26.5 -101q-1 -132 95 -203q143 -107 307.5 -100.5t215.5 82.5q63 94 -3 232q-52 107 -205 163z" />
    <glyph glyph-name="uni0A21" unicode="&#xa21;" horiz-adv-x="1096" 
d="M519 575q61 -66 60.5 -162t-64.5 -162q37 -7 78 -7q135 0 236 82q64 52 66 147q2 104 -88 185q-85 75 -270 85q-3 0 -66.5 7.5t-237.5 7.5q-20 0 -26 16.5t6 40.5t35 40.5t43 16.5q176 0 305 -15h1q187 1 222 36q20 20 20.5 103t-42.5 133h-799l-24 138l28 4h1102
l25 -138l-28 -4h-157q41 -183 -68 -292q-21 -20 -43 -35q51 -23 89 -61q89 -89 87 -221q-3 -155 -148.5 -272.5t-326.5 -117.5q-195 0 -311 125q-61 66 -61 160t61 160t148 66t148 -66zM254 409q0 -49 34.5 -83t82.5 -34t82.5 34t34.5 83t-34.5 84t-82.5 35t-82.5 -35
t-34.5 -84z" />
    <glyph glyph-name="uni0A22" unicode="&#xa22;" horiz-adv-x="1301" 
d="M229 667.5q0 -38.5 28 -65.5t66.5 -27t66.5 27t28 65.5t-28 66t-66.5 27.5t-66.5 -27.5t-28 -66zM994 436.5q0 -38.5 28 -65.5t67 -27t66.5 27t27.5 65.5t-27.5 65.5t-66.5 27t-67 -27t-28 -65.5zM1209 315l-57 -55q-149 -138 -336 -137q-200 1 -321 124
q-109 107 -120 255q-24 -7 -51 -7q-71 0 -120 51.5t-49 125.5t49 126t120 52q74 0 119 -52q6 -7 12 -13q29 40 69 77q147 137 343 137q112 0 204 -46l1 176h-1074l-24 138l28 4h1314l24 -138l-28 -4h-126l-1 -272q0 -38 -42 -69t-64 -10q-114 107 -263 107q-157 -1 -243 -87
q-87 -87 -86 -216q1 -139 113 -242q110 -103 260 -103q98 0 171 37q-34 13 -61 41q-50 52 -50 126t49.5 126t119.5 52t119.5 -52t49.5 -126t-49 -126z" />
    <glyph glyph-name="uni0A23" unicode="&#xa23;" horiz-adv-x="1329" 
d="M826 143q-366 0 -541 175q-106 106 -106.5 278.5t146.5 263.5q74 45 161 45q149 0 229 -78q82 103 92 302h-809l-24 138l28 4h1336l25 -138l-28 -4h-419q-6 -58 -18 -110q199 -180 330 -629q6 -18 -7 -41.5t-36 -39.5t-43 -15t-25 18q-115 395 -273 563
q-50 -97 -133 -165q-50 -40 -71 -10q-64 91 -212 91q-72 0 -104 -32.5t-31 -113.5q0 -163 128 -260q168 -128 463 -128q20 0 26 -16.5t-6 -40.5t-35 -40.5t-43 -16.5z" />
    <glyph glyph-name="uni0A24" unicode="&#xa24;" horiz-adv-x="1079" 
d="M737 783q97 -36 143 -83q74 -74 74 -199q0 -159 -149.5 -265t-335.5 -106t-303 115q-12 12 -6 34.5t26.5 43.5t43.5 27t34 -5q103 -101 256.5 -101t260.5 76q59 42 59 133q-1 120 -97 178q-139 84 -398 98q-20 2 -25 19t8 41t36 39.5t64 13.5t96 -9q170 18 243 63
q18 18 18 102t-50 131h-737l-24 138l28 4h1080l24 -138l-28 -4h-188q24 -95 -4.5 -186t-101.5 -136q-22 -13 -47 -24z" />
    <glyph glyph-name="uni0A25" unicode="&#xa25;" horiz-adv-x="1124" 
d="M2 1271h1124l24 -138l-28 -4h-159v-977l-24 -24l-120 120v238l-16 -19q-11 -13 -25 -22q-148 -99 -290 -102.5t-206.5 79.5t-96.5 324q-5 38 -8 383h-179l-24 138zM819 1129h-527q1 -142 3 -221h524v221zM819 766h-514q31 -201 86.5 -256.5t154.5 -53t198 65.5l75 89v155
z" />
    <glyph glyph-name="uni0A26" unicode="&#xa26;" horiz-adv-x="1355" 
d="M237 667.5q0 -38.5 28 -65.5t66.5 -27t66.5 27t28 65.5t-28 66t-66.5 27.5t-66.5 -27.5t-28 -66zM212 798q49 52 124.5 52t127.5 -66q155 215 411 215q112 0 204 -46l1 176h-1082l-24 138l28 4h1355l24 -138l-28 -4h-159l-1 -272q0 -38 -42 -69t-64 -10
q-114 107 -268 107q-152 -1 -244 -94q-80 -80 -79 -214t110 -235q113 -105 262 -105q159 0 239 83l66 69q20 21 43 28t35.5 -3.5t6 -38.5t-95.5 -112q-146 -140 -344 -139q-194 0 -321 129q-105 105 -115 249q-23 -7 -50 -7q-71 0 -120 51.5t-49 125.5t49 126z" />
    <glyph glyph-name="uni0A27" unicode="&#xa27;" horiz-adv-x="1152" 
d="M2 1271h1152l24 -138l-28 -4h-181v-977l-24 -24l-120 120v238q-21 -28 -48 -47q-153 -103 -286 -106q-151 -3 -214.5 78.5t-94.5 321.5q-5 38 -8 396h-176l-24 138zM314 827q32 -245 92 -305q59 -58 179 -56q75 2 167 59l73 87v517h-518q3 -272 7 -302z" />
    <glyph glyph-name="uni0A28" unicode="&#xa28;" horiz-adv-x="1329" 
d="M1062 342q10 2 11 18t-3 25q-32 68 -196 255.5t-220 210.5q-48 -28 -199.5 -203.5t-166.5 -217.5v-34t25.5 -43t165.5 -17q20 0 26 -16.5t-6 -40.5t-35 -40.5t-43 -16.5q-177 0 -211 34t-35.5 98.5t55.5 143.5t180 221t214 208v202h-626l-24 138l28 4h1329l24 -138
l-28 -4h-589v-169q6 -3 255 -243q14 -14 44 -51l67 -81q87 -107 84 -159q-9 -142 -103 -179q-61 -24 -202 -25q-20 0 -26 16.5t6 40.5t35 40.5t43 16.5q80 0 121 6z" />
    <glyph glyph-name="uni0A2A" unicode="&#xa2a;" horiz-adv-x="1139" 
d="M952 1129l-1 -977l-24 -24l-120 120v238l-16 -19q-11 -13 -25 -22q-148 -99 -281 -102q-151 -4 -217.5 81t-94.5 323q-3 24 -7 382h-168l-24 138l28 4h278q4 -435 7 -458q26 -236 87 -297.5t180 -58.5q79 2 178 65l75 89v660h334l24 -138l-28 -4h-185z" />
    <glyph glyph-name="uni0A2B" unicode="&#xa2b;" horiz-adv-x="1101" 
d="M864 1129q-18 -192 -117.5 -245t-208.5 -53q-170 0 -226 -78q-31 -44 -30 -124q4 -195 181 -305q-18 58 -15.5 95t15.5 69q26 61 70 105q80 79 182 85q110 7 176 -59q97 -97 67 -235q-12 -56 -31 -78l-37 -43q-2 -3 -12 -12q-137 -119 -268 -108q-198 18 -319 139
t-123 289q-2 147 100 252q37 39 91 68q99 54 204.5 54t165.5 28q19 41 23 156h-754l-24 138l28 4h1109l24 -138l-28 -4h-243zM561 464q24 -198 113 -207q79 -8 158 62q22 18 17 87t-58.5 115.5t-127.5 42.5q-96 -5 -102 -100z" />
    <glyph glyph-name="uni0A2C" unicode="&#xa2c;" horiz-adv-x="1152" 
d="M2 1271h1152l24 -138l-28 -4h-178v-977l-24 -24l-120 120v238q-21 -28 -48 -47q-153 -103 -271.5 -105.5t-231.5 82.5q-70 53 -88 156q-4 22 16 50.5t41.5 42.5t25 17.5t12.5 29.5t10 69q-53 51 -85 145.5t-33 202.5h-178l-24 138zM332 1052q35 -105 81 -149h415v226
h-513q5 -43 17 -77zM413 771q-21 -78 -82 -142q19 -56 62 -89q100 -76 185 -74t177 59l73 87v159h-415z" />
    <glyph glyph-name="uni0A2D" unicode="&#xa2d;" horiz-adv-x="1273" 
d="M867 735q-125 106 -276 108t-194 -39q-5 -4 -5 -20q-1 -51 50 -93.5t198.5 -42.5t203.5 62q13 12 23 25zM1040 1129q39 -187 -34 -334q110 -116 120 -250q13 -180 -164 -306q-131 -93 -354 -93q-299 0 -484 178q-12 12 -6 34.5t26.5 43t43 27t34.5 -4.5
q171 -164 444 -164q214 0 302 88q50 50 43 144t-86 186q-17 -18 -36 -36q-113 -108 -301.5 -108t-257.5 69q-54 54 -52 127q3 103 115 173q91 56 253 54t285 -94q7 31 7 64q1 148 -38 202h-902l-24 138l28 4h1273l24 -138l-28 -4h-231z" />
    <glyph glyph-name="uni0A2E" unicode="&#xa2e;" horiz-adv-x="1327" 
d="M374 1129h-388l-24 138l28 4h399q94 -31 148 -104t64 -347q2 -44 1 -87h416v396h-130l-24 138l28 4h437l24 -138l-28 -4h-163v-977l-24 -24l-120 120v371h-423q-15 -154 -38 -199q-59 -118 -142 -109q-62 7 -157 110q-89 97 -87 150q4 87 79 138q34 24 90 24h148
q-6 274 -50 334q-27 37 -64 62zM459 432q21 88 27 187h-199q11 -41 75.5 -105.5t96.5 -81.5z" />
    <glyph glyph-name="uni0A2F" unicode="&#xa2f;" horiz-adv-x="1264" 
d="M628 514q21 65 21 245q0 52 -1 107h311v263h-587q-59 -93 -59 -271.5t108.5 -287t206.5 -56.5zM959 734h-181q-9 -193 -67 -255l-24 -25q-100 -88 -210.5 -88t-203.5 117.5t-93 274.5q0 230 90 371h-272l-24 138l28 4h1270l25 -138l-28 -4h-165v-977l-24 -24l-121 120
v486z" />
    <glyph glyph-name="uni0A30" unicode="&#xa30;" horiz-adv-x="1033" 
d="M849 455q0 -124 -103 -229v-1q-10 -8 -19 -16.5t-28.5 -20t-42.5 -20.5q-65 -25 -163 -25q-126 0 -207 78l-11 10q-94 91 -94 223q0 141 109 251q14 13 29 26q102 86 248 86q100 0 168 -46v358h-737l-24 138l28 4h1033l24 -138l-28 -4h-182v-674zM735 471q-2 5 -2 12
q0 98 -59 157q-5 6 -14 13q-59 50 -151 50q-98 0 -148 -42q-8 -6 -14 -13q-52 -52 -52 -136q0 -105 79 -182l10 -9q66 -64 167 -64q78 0 121 16q14 6 17 9h1q45 46 45 115v74z" />
    <glyph glyph-name="uni0A32" unicode="&#xa32;" horiz-adv-x="1510" 
d="M361 768q-27 0 -63 -51q-19 -26 -19 -88q0 -147 88 -234q139 -138 274 -138q20 0 26 -16.5t-6 -40.5t-35 -40.5t-43 -16.5q-161 0 -314 152q-104 103 -104 276q0 103 53 176q99 136 201 135q15 0 30 -1q-12 96 -14 248h-437l-24 138l28 4h1510l24 -138l-28 -4h-404
q-4 -176 -22 -260q45 13 97 13q77 1 155 -103q41 -55 41 -150q0 -188 -125 -312q-175 -174 -351 -174q-20 0 -26 16.5t6 40.5t35 40.5t43 16.5q120 0 237 116q67 67 67 198q0 73 -24.5 106t-54 62t-61.5 29q-65 -1 -97 -19q-37 -52 -97 -112q-96 -96 -164 -123
q-78 -30 -269 216q-55 38 -133 38zM596 825q127 -163 199 -197q76 49 162 166v1q31 61 34 334h-441q6 -260 44 -301q1 -1 2 -3z" />
    <glyph glyph-name="uni0A33" unicode="&#xa33;" horiz-adv-x="1503" 
d="M361 768q-27 0 -63 -51q-19 -26 -19 -88q0 -147 88 -234q139 -138 274 -138q20 0 26 -16.5t-6 -40.5t-35 -40.5t-43 -16.5q-161 0 -314 152q-104 103 -104 276q0 103 53 176q99 136 201 135q15 0 30 -1q-12 96 -14 248h-437l-24 138l28 4h1510l24 -138l-28 -4h-404
q-4 -176 -22 -260q45 13 97 13q77 1 155 -103q41 -55 41 -150q0 -188 -125 -312q-175 -174 -351 -174q-20 0 -26 16.5t6 40.5t35 40.5t43 16.5q120 0 237 116q67 67 67 198q0 73 -24.5 106t-54 62t-61.5 29q-65 -1 -97 -19q-37 -52 -97 -112q-96 -96 -164 -123
q-78 -30 -269 216q-55 38 -133 38zM596 825q127 -163 199 -197q76 49 162 166v1q31 61 34 334h-441q6 -260 44 -301q1 -1 2 -3zM109 151q0 45 47 76q22 14 58 16q48 3 82 -41q26 -33 26 -62q0 -40 -24 -61q-34 -31 -84 -31q-51 0 -77 31q-28 33 -28 72z" />
    <glyph glyph-name="uni0A35" unicode="&#xa35;" horiz-adv-x="1249" 
d="M562 289q-5 16 -23 15q-245 -3 -345 97q-82 81 -64 200q12 76 86.5 151t163.5 118q130 65 546 57v202h-929l-25 138l28 4h1254l24 -138l-27 -4h-211v-251q0 -29 -29.5 -58t-58.5 -28q-137 7 -333.5 -1t-255.5 -45q-120 -76 -120.5 -141t68.5 -121.5t231 -63.5q16 0 23 19
q17 52 68 97q83 73 200 73t199 -73q55 -49 73 -110l-156 -1q-10 20 -26 36q-38 40 -93 40t-93.5 -39.5t-38.5 -95.5t38.5 -95.5t93.5 -39.5q79 0 117 71l161 1q-17 -67 -87.5 -129.5t-184.5 -62.5t-203 73q-53 44 -71 105z" />
    <glyph glyph-name="uni0A36" unicode="&#xa36;" horiz-adv-x="1228" 
d="M396 429q20 88 26 186h-199q12 -40 76.5 -105t96.5 -81zM494 1125q35 -91 43 -308q2 -45 1 -88h416v396h-460zM1234 1268l24 -138l-27 -5h-133v-977l-24 -24l-120 120v371h-423q-15 -154 -38 -199q-59 -118 -142 -108q-62 7 -157 109q-89 97 -87 151q4 87 79 138
q35 23 90 23h148q-5 274 -49 334q-28 38 -65 62l-312 4l-24 138l28 4zM623 340q0 45 47 76q23 14 59 16q47 3 82 -41q25 -33 25 -62q0 -40 -23 -61q-35 -31 -84 -31q-52 0 -78 31q-28 33 -28 72z" />
    <glyph glyph-name="uni0A37" unicode="&#xa37;" horiz-adv-x="2000" 
 />
    <glyph glyph-name="uni0A38" unicode="&#xa38;" horiz-adv-x="1227" 
d="M396 429q20 88 26 186h-199q12 -40 76.5 -105t96.5 -81zM494 1125q35 -91 43 -308q2 -45 1 -88h416v396h-460zM1234 1268l24 -138l-27 -5h-133v-977l-24 -24l-120 120v371h-423q-15 -154 -38 -199q-59 -118 -142 -108q-62 7 -157 109q-89 97 -87 151q4 87 79 138
q35 23 90 23h148q-5 274 -49 334q-28 38 -65 62l-312 4l-24 138l28 4z" />
    <glyph glyph-name="uni0A39" unicode="&#xa39;" horiz-adv-x="1084" 
d="M907 452q0 -113 -92 -202q-111 -107 -226 -107q-119 0 -245 93q-29 20 -55 47q-109 109 -109 255q0 84 26 138q15 30 38 53q31 31 66 41q39 11 59 -9q9 -9 4 -25q-6 -23 -49 -49q-30 -18 -30 -90q-1 -120 94 -215q24 -24 49 -43q113 -82 210 -82q61 0 114 53l1 1
q10 10 17 26q15 30 15 61l-1 731h-795l-24 138l28 4h1084l24 -138l-28 -4h-174z" />
    <glyph glyph-name="uni0A3C" unicode="&#xa3c;" 
d="M-1303 -155q0 45 47 76q23 14 59 16q47 3 82 -41q25 -33 25 -62q0 -40 -23 -61q-35 -31 -84 -31q-51 0 -78 31q-28 33 -28 72z" />
    <glyph glyph-name="uni0A3E" unicode="&#xa3e;" horiz-adv-x="427" 
d="M306 1129v-977l-24 -24l-120 120v881h-164l-24 138l28 4h433l24 -138l-27 -4h-126z" />
    <glyph glyph-name="uni0A3F" unicode="&#xa3f;" horiz-adv-x="387" 
d="M477 1734q222 0 420 -129l102 -96l-24 -24q-161 105 -402 105h-3q-143 0 -243 -93l-16 -16q-62 -57 -62 -120q0 -53 6 -90h137l24 -138l-27 -4h-80v-977l-24 -24l-120 120v881h-167l-24 138l28 4h144q-41 61 -41 177q9 60 30.5 91.5t57.5 65.5l38 36q98 93 243 93h3z" />
    <glyph glyph-name="uni0A40" unicode="&#xa40;" horiz-adv-x="436" 
d="M-462 1447l60 -73l-24 -24l-37 34l-120 120q-64 64 -64 116q-1 89 90 168q55 48 213 48q197 0 372 -144q246 -203 278 -421h136l25 -138l-28 -4h-129v-977l-24 -24l-120 120v881h-168l-24 138l28 4h164q-4 149 -150 277q-173 150 -312 148q-106 -1 -165 -52
q-46 -41 -46 -110q0 -33 45 -87z" />
    <glyph glyph-name="uni0A41" unicode="&#xa41;" 
d="M-321 -141q102 -9 102 -42q0 -45 -181 -93q-96 -26 -236 -24q-67 1 -105 33q-32 27 -30 81q2 51 36 81q16 14 78 18q47 3 72 -9q45 -21 63 -54z" />
    <glyph glyph-name="uni0A42" unicode="&#xa42;" 
d="M-318 -416q105 1 107 -25q3 -36 -179 -88q-96 -28 -239 -37q-68 -4 -109 19q-34 19 -36 62q-1 41 32 67q16 12 78 20q48 6 74 -2q47 -13 68 -38zM-312 -223q98 -25 93 -53q-8 -37 -195 -45q-99 -4 -236 21q-65 13 -97 46q-27 28 -16 72q11 42 50 61q18 9 80 1
q46 -6 69 -20q40 -25 52 -56z" />
    <glyph glyph-name="uni0A47" unicode="&#xa47;" 
d="M-1193 1708q82 82 253 82q304 0 703 -377q41 -38 59 -79.5t3 -61.5t-55 -7q-48 16 -80 51q-237 266 -490 266q-138 0 -202 -65q-13 -13 -24 -30q-13 -21 -51.5 -9.5t-80 49t-61 79t-5.5 63.5q13 21 31 39z" />
    <glyph glyph-name="uni0A48" unicode="&#xa48;" 
d="M-975 1850q55 54 161 54q109 0 216 -53q122 -61 205 -151q127 -138 228 -353q26 -56 -2 -72q-44 -23 -103 21q-213 158 -465 156q-84 -1 -152 -69q-28 -28 -50 -71q-12 -23 -50 -13.5t-79.5 46t-62.5 78.5t-10 65q27 52 61 86q51 51 121 63q-27 26 -46 57q-25 43 -18 71
q13 52 46 85zM-805 1629q187 -36 472 -186q-65 106 -104 137q-148 116 -237 116q-73 0 -110 -37q-12 -13 -21 -30z" />
    <glyph glyph-name="uni0A4B" unicode="&#xa4b;" 
d="M-845 1742q-79 104 -79 280q-2 69 -2 172h34q-5 -171 81 -282q91 -117 234 -147q133 -28 234 -96q123 -83 160 -267v-132h-34q-21 135 -160 229q-101 68 -234 96t-234 147z" />
    <glyph glyph-name="uni0A4C" unicode="&#xa4c;" 
d="M-911 1769q-145 103 -145 436h34q-13 -165 145 -266q140 -91 285 -117q176 -32 286 -140q123 -123 123 -260v-122h-34q0 84 -86 185q-75 88 -163 133q33 -104 33 -205v-115h-34q0 72 -42 177q-45 114 -101 187q-182 23 -301 107z" />
    <glyph glyph-name="uni0A4D" unicode="&#xa4d;" 
d="M234 -208l-408 336l-120 120l24 24l408 -336l120 -120z" />
    <glyph glyph-name="uni0A59" unicode="&#xa59;" horiz-adv-x="1078" 
d="M938 1129v-977l-24 -24l-120 120v238l-16 -19q-11 -13 -25 -22q-149 -99 -268 -102q-147 -3 -220 69q-8 9 -16 19q-63 80 -89 315q-4 31 -7 383h-155l-24 138l28 4h263q1 -3 1 -8q2 -242 4 -355h524v363h300l24 -138l-27 -4h-153zM794 766h-514q26 -182 72 -241l12 -14
q57 -57 176 -54q79 2 179 65l75 89v155zM86 226q0 45 47 76q23 14 59 16q47 3 82 -41q25 -33 25 -62q0 -40 -23 -61q-35 -31 -84 -31q-52 0 -78 31q-28 33 -28 72z" />
    <glyph glyph-name="uni0A5A" unicode="&#xa5a;" horiz-adv-x="1114" 
d="M250 536q0 -51 36.5 -87.5t87.5 -36.5t87.5 36.5t36.5 87.5t-36.5 87.5t-87.5 36.5t-87.5 -36.5t-36.5 -87.5zM637 521q0 -100 -72.5 -170.5t-175.5 -70.5t-175.5 70.5t-72.5 170.5t72.5 170.5t175.5 70.5q57 0 104 -21v388h-495l-24 138l28 4h1126l25 -138l-28 -4h-107
v-977l-24 -24l-120 120v881h-237v-608zM55 220q0 45 47 76q22 14 58 16q48 3 82 -41q26 -33 26 -62q0 -40 -24 -61q-34 -31 -84 -31q-51 0 -77 31q-28 33 -28 72z" />
    <glyph glyph-name="uni0A5B" unicode="&#xa5b;" horiz-adv-x="1101" 
d="M546 156q0 46 47 76q22 14 58 16q48 4 82 -41q26 -33 26 -61q0 -40 -24 -61q-34 -31 -84 -31q-51 0 -77 31q-28 32 -28 71zM150 813.5q0 73.5 49.5 125.5t119.5 52t119.5 -52t49.5 -125q0 -20 -4 -38h355v353h-841l-24 138l28 4h1108l24 -138l-27 -4h-124v-977l-24 -24
l-120 120v386h-354v-482l-24 -24l-120 120v389q-11 -1 -22 -1q-70 0 -119.5 52t-49.5 125.5zM240 798.5q0 -38.5 28 -65.5t67 -27t66.5 27t27.5 65.5t-27.5 65.5t-66.5 27t-67 -27t-28 -65.5z" />
    <glyph glyph-name="uni0A5C" unicode="&#xa5c;" horiz-adv-x="1193" 
d="M910 759q49 -77 48.5 -192t-98.5 -210q57 -75 76 -186q4 -18 -10.5 -41.5t-38 -38t-42 -12t-21.5 21.5q-21 118 -92 190q-86 -24 -210.5 -23.5t-215.5 18.5q20 -56 49 -100q9 -14 0 -37.5t-31 -42.5t-43.5 -22.5t-31.5 10.5q-62 97 -86 240q-19 8 -16 31.5t22 45.5
t42.5 31.5t37.5 0.5q99 -60 310.5 -61t253.5 42q32 31 32 85q0 127 -71 199q-144 -13 -595 -13q-20 0 -26 16.5t6 40.5t35 40.5t43 16.5q550 0 616 16q38 10 59.5 62.5t24.5 241.5h-939l-24 138l28 4h1196l24 -138l-27 -4h-146q-7 -166 -38.5 -241t-100.5 -129z" />
    <glyph glyph-name="uni0A5D" unicode="&#xa5d;" horiz-adv-x="2000" 
 />
    <glyph glyph-name="uni0A5E" unicode="&#xa5e;" horiz-adv-x="1107" 
d="M864 1129q-18 -192 -117.5 -245t-208.5 -53q-170 0 -226 -78q-31 -44 -30 -124q4 -195 181 -305q-18 58 -15.5 95t15.5 69q26 61 70 105q80 79 182 85q110 7 176 -59q97 -97 67 -235q-12 -56 -31 -78l-37 -43q-2 -3 -12 -12q-137 -119 -268 -108q-198 18 -319 139
t-123 289q-2 147 100 252q37 39 91 68q99 54 204.5 54t165.5 28q19 41 23 156h-754l-24 138l28 4h1109l24 -138l-28 -4h-243zM561 464q24 -198 113 -207q79 -8 158 62q22 18 17 87t-58.5 115.5t-127.5 42.5q-96 -5 -102 -100zM61 148q0 46 47 76q23 14 59 16q47 4 82 -41
q25 -33 25 -61q0 -40 -23 -61q-35 -31 -84 -31q-52 0 -78 31q-28 32 -28 71z" />
    <glyph glyph-name="uni0A66" unicode="&#xa66;" horiz-adv-x="984" 
d="M297 975q33 82 81 143q18 23 39 44q15 15 24 22t21 17.5t38.5 26.5t54.5 26q43 16 87 16q86 0 157 -61q8 -8 16 -15q56 -57 90 -146q39 -101 39 -220q0 -127 -41 -232q-33 -82 -81 -143q-18 -23 -39 -44q-15 -15 -24 -22t-21 -17.5t-38.5 -26.5t-54.5 -26
q-43 -16 -87 -16q-86 0 -157 61q-8 8 -16 15q-56 57 -90 146q-39 101 -39 220q0 127 41 232zM388 828q0 -108 36 -199q31 -81 82 -131q6 -7 14 -14q57 -50 122 -50q26 0 47 8q15 5 31 18l6 6q6 6 12 13q22 28 41 76q33 83 33 188q0 108 -36 199q-31 81 -82 131q-6 7 -14 14
q-57 50 -122 50q-26 0 -47 -8q-15 -5 -31 -18l-6 -6q-6 -6 -12 -13q-22 -28 -41 -76q-33 -83 -33 -188z" />
    <glyph glyph-name="uni0A67" unicode="&#xa67;" horiz-adv-x="1043" 
d="M481 1086q-148 0 -149 -168q1 -109 72.5 -180.5t161.5 -71.5q145 0 149 159v9q-1 109 -72 180.5t-162 71.5zM481 534q-113 0 -197 84t-84 197q1 181 120 292q69 58 95 72q75 39 151 39q121 -1 202 -89q82 -88 80 -211q-10 -641 18 -779q3 -19 -13.5 -46.5t-44 -47.5
t-49 -21t-25.5 17q-24 121 -21 592q-57 -48 -81 -60q-75 -39 -151 -39z" />
    <glyph glyph-name="uni0A68" unicode="&#xa68;" horiz-adv-x="1078" 
d="M228 1105q80 112 268 160q125 31 281 -126q90 -89 95.5 -213.5t-120.5 -235.5q-76 -66 -159 -101l230 -222l184 -187q17 -17 -5 -44q-4 -8 -22.5 -14.5t-30.5 5.5l-183 187q-143 145 -258 249q-14 -3 -28 -5q-68 -10 -170 51q-89 52 2 143q3 2 34 27q51 41 102 3t111 -91
q98 17 159 78q24 23 22 65q-7 114 -86 189q-140 132 -215 112q-129 -34 -144 -83q-9 -9 -38 -24t-36 -14q-20 2 -21 26t28 65z" />
    <glyph glyph-name="uni0A69" unicode="&#xa69;" horiz-adv-x="1054" 
d="M201 1001q3 47 79 109q101 81 278.5 81t279.5 -102q82 -82 50 -206q-24 -95 -96 -159q50 -24 99 -72.5t46 -177.5q-3 -158 -130.5 -258t-253.5 -108q236 -325 242 -356q5 -18 -16 -30.5t-31.5 -3.5t-279.5 395q-98 16 -168 90l-15 15q-64 68 -69 81q-21 54 30 105
q7 1 46 21t48 17q40 -13 122 -126l36 -50q52 -26 113 -26q108 0 164 57q29 28 30 114.5t-43 128.5q-74 72 -169 85q-34 -7 -103.5 -7t-80.5 6q-51 34 17 101q36 38 64 36.5t93.5 -1.5t84.5 -1q39 9 74 31q20 12 20.5 82.5t-85.5 128.5t-207 58t-160 -30q-20 -25 -47 -41.5
t-45.5 -12.5t-16.5 26z" />
    <glyph glyph-name="uni0A6A" unicode="&#xa6a;" horiz-adv-x="1141" 
d="M877 143q14 9 14 45q-6 215 -319 374q-229 -146 -230 -234t99 -175q196 -169 436 -10zM832 1459q166 -186 164 -365q-1 -234 -267 -430q289 -163 294 -390q3 -90 -83 -183q-21 -22 -59 -48q-344 -228 -586 14q-138 138 -55 295q66 125 244 252q-123 63 -187 168t-63 158
q2 156 135 265q26 22 49.5 26t30 -12.5t-8 -44t-29 -39.5t-21.5 -19q-22 -22 -24 -95q0 -32 39.5 -97.5t85 -111t130.5 -84.5l22 -10q83 50 133 100q87 87 88 197q1 162 -154 336q-11 12 -1 38t35.5 50.5t51 33.5t36.5 -4z" />
    <glyph glyph-name="uni0A6B" unicode="&#xa6b;" horiz-adv-x="1029" 
d="M357 691q1 -56 57 -112q33 -33 87 -33q123 0 192 70v542q0 21 19 48.5t47 45t47 15t19 -24.5v-1068q0 -21 -19 -48.5t-46.5 -45t-47 -15t-19.5 24.5v419q-123 -95 -276 -95q-78 0 -123 45q-69 68 -69 146q-2 186 9 554q0 21 20 48.5t47.5 44.5t46.5 14t18 -25
q-11 -366 -9 -550z" />
    <glyph glyph-name="uni0A6C" unicode="&#xa6c;" horiz-adv-x="1265" 
d="M582 702q-36 -22 -73 -52q-73 -58 -74 -139.5t60 -133.5q74 -71 184 -71q49 0 88 7q20 104 101 209q21 28 59 57q79 61 119 21q20 -20 20 -78q0 -120 -174 -256q-14 -11 -30 -21q30 -131 30 -241q-1 -17 -6 -24.5t-26.5 -8.5t-25.5 17q-28 133 -35 223
q-90 -37 -217.5 -36.5t-213.5 88.5q-68 66 -67 157q3 151 133 273q-233 31 -233 265q0 124 126 251q59 59 130.5 92t204 33t216.5 -112q10 -13 -1 -39.5t-36.5 -50.5t-51 -31.5t-35.5 5.5q-72 95 -197 95t-174.5 -49.5t-49.5 -109.5q0 -202 220 -220q22 -1 72 7
q80 43 141 55t70.5 2.5t11 -18t-15 -45t-25.5 -45.5t-35 -25t-35 -18q-91 -22 -155 -33z" />
    <glyph glyph-name="uni0A6D" unicode="&#xa6d;" horiz-adv-x="1013" 
d="M563 907q-18 -51 -81 -98q-51 -38 -114 -38q-86 1 -128 74q-56 94 6 224q39 82 112 143q116 95 212 84q123 -13 178.5 -98t55.5 -194v-872q0 -21 -19 -48.5t-47 -45t-47 -15t-19 24.5v872q0 120 -70 190q-46 45 -107 52q-95 10 -131 -66q-46 -96 23 -166q48 -48 85 -6
q23 27 50 39.5t42 4t9 -29.5t-10 -31z" />
    <glyph glyph-name="uni0A6E" unicode="&#xa6e;" horiz-adv-x="1565" 
d="M264 458q0 463 399 676h-657q-22 0 -24.5 19t15 47t45 47t48.5 19h1203q22 0 24.5 -19t-15 -47t-45 -47t-48.5 -19h-116q-398 -28 -580 -209q-117 -117 -117 -383q0 -165 125 -290l16 -14q134 -125 332 -126.5t324 124.5q41 41 52.5 80t35.5 65t50.5 37t40 1t6.5 -35
q-52 -175 -256 -306q-157 -101 -357 -99.5t-348 137.5l-16 16q-137 138 -137 326z" />
    <glyph glyph-name="uni0A6F" unicode="&#xa6f;" horiz-adv-x="1523" 
d="M1271 434q-88 -223 -266 -347l-10 -6q-178 -104 -304 -102.5t-274 137.5l-16 16q-137 138 -137 326q0 315 174 504l23 24q87 87 200 148h-655q-22 0 -24.5 19t15 47t45 47t48.5 19h747q69 119 153 203q185 184 402 184q363 0 506 -385q6 -17 -8.5 -44t-41.5 -49
t-50.5 -25.5t-29.5 12.5q-133 359 -457 359q-156 0 -264 -108q-56 -57 -108 -147h354q22 0 24.5 -19t-15 -47t-45 -47t-48.5 -19h-116q-412 -28 -589 -218q-108 -117 -108 -374q0 -165 125 -290l16 -14q135 -125 250 -127q81 -1 213 75q92 66 147 208q11 26 36 50.5t50.5 33
t36.5 -4.5t1 -39z" />
    <glyph glyph-name="uni0A70" unicode="&#xa70;" 
d="M-233 1416q-46 10 -15 55q34 49 34 103q0 60 -34 103q-12 15 -86 15q-72 0 -80 -15q-37 -73 -34 -103q0 -3 34 -103q25 -74 -48 -61q-54 10 -70 26q-79 82 -79 204q0 119 79 203q67 71 188 71q143 0 199 -71q80 -84 80 -203q0 -77 -80 -204q-21 -35 -88 -20z" />
    <glyph glyph-name="uni0A71" unicode="&#xa71;" horiz-adv-x="627" 
d="M625 1129h-627l-24 138l28 4h627l24 -138zM546 1715q0 -108 -68 -203q-55 -80 -162 -80q-101 0 -162 80q-68 87 -68 203q0 21 14 36t34 15t34 -15t14 -36q0 -35 39 -77q34 -37 94 -37q57 0 95.5 36.5t37.5 75.5q-1 19 14 36q14 15 35 15q22 1 35 -14q14 -15 14 -35z" />
    <glyph glyph-name="uni0A72" unicode="&#xa72;" horiz-adv-x="1050" 
d="M266 296q2 -110 190 -106q82 2 218 50l134 94q45 45 95 19q14 -7 17 -32q10 -69 -72 -107l-191 -87q-110 -51 -249 -51q-253 0 -256 162q-1 62 25.5 106t60 78t107.5 82q-7 58 -99 165q-119 138 -119 276q0 85 25 184h-154l-24 138l28 4h1056l24 -138l-27 -4h-188
q5 -85 -5 -184q-23 -204 -113 -306q-93 -105 -222 -156q-262 -103 -261 -187zM470 574q39 19 93 40.5t103 92t66 211.5q3 25 -7 211h-468q-13 -69 -13 -144.5t77 -248.5q52 -116 149 -162z" />
    <glyph glyph-name="uni0A73" unicode="&#xa73;" horiz-adv-x="1288" 
d="M994 879q51 -19 83 -68q38 -58 38 -116q-3 -199 -153 -341q-121 -115 -300 -115q-250 0 -396 221q-113 172 -113 461q0 104 22 208h-177l-24 138l28 4h216q38 102 98 202q57 94 134 174q162 167 419 169q114 1 235 -90q96 -73 96 -278q0 -89 -19 -177h114l24 -138l-27 -4
h-155q-51 -127 -143 -250zM900 890q91 117 137 239h-751q-11 -74 -11 -151q0 -333 176 -509q116 -116 259 -116q140 0 207 69q90 92 90 215q0 73 -39 113q-61 63 -184 46q-101 -14 -201 -100q-16 -14 -64 -12q-26 1 -43 59q-5 18 11 63q5 12 50 40q68 43 363 44zM320 1271
h756q10 59 10 119q0 172 -76 229q-117 89 -228 88q-227 -1 -375 -246q-55 -91 -87 -190z" />
    <glyph glyph-name="uni0A74" unicode="&#xa74;" horiz-adv-x="2665" 
d="M1209 545q167 0 179 -79q17 -103 -92 -216l-7 -7l-33 -30q46 -42 76 -129q44 -127 -64 -246q-16 -17 -29 -28l-29 -23q-80 -62 -187 -54q-136 10 -241 149q-139 182 -134 594q2 249 200.5 374t372.5 89q122 308 291 486l17 17q265 266 745 280q337 10 323 -753
q0 -21 -20 -48.5t-47.5 -45t-46.5 -14.5t-19 25q10 505 -132 646q-59 59 -140 57q-425 -12 -617 -214q-152 -160 -270 -501q-13 -38 -53 -68t-63 -20q-167 71 -339 -38q-70 -43 -70 -208q97 5 429 5zM141 479q-13 -22 0 -64q26 -79 106.5 -110t197.5 22v8q-11 109 -49 143
q-62 62 -121 57q-92 -9 -134 -56zM444 223q-47 -26 -133.5 -53t-151.5 -1q-116 44 -143 128q-22 67 -11 106q23 81 85 139q8 7 28 27.5t83.5 55t154 42t166.5 -74.5q42 -44 55 -164q3 -25 -4 -297t55 -314q14 -9 7 -34t-31 -51t-50.5 -37.5t-36.5 -4.5q-84 57 -76 388
q2 87 3 145zM810 223q191 -13 356 34q35 10 65.5 41.5t25 72.5t-132.5 41q-224 0 -339 -2q6 -103 25 -187zM1079 120q-105 -28 -226 -32q23 -51 52 -90q127 -167 271 -126q18 5 26.5 14t10 34.5t-17 78t-52.5 86.5t-63 35h-1z" />
    <glyph glyph-name="afii61664" unicode="&#x200c;" 
d="M-36 -275v1859h72v-1859h-72z" />
    <glyph glyph-name="afii301" unicode="&#x200d;" 
d="M170 1320l-134 136v-1731h-72v1731l-134 -136l-49 49l171 169l-171 168l49 49l170 -171l170 171l49 -49l-171 -168l171 -169z" />
    <glyph glyph-name="endash" unicode="&#x2013;" horiz-adv-x="1118" 
d="M-2 732v107h1120v-107h-1120z" />
    <glyph glyph-name="emdash" unicode="&#x2014;" horiz-adv-x="1818" 
d="M-2 732v107h1820v-107h-1820z" />
    <glyph glyph-name="quoteleft" unicode="&#x2018;" horiz-adv-x="652" 
d="M364 1554q-28 -20 -48.5 -35t-35.5 -31t-25 -37t-16 -52q30 -2 52.5 -7.5t38 -19t23 -35.5t7.5 -57q0 -52 -28 -83t-76 -31q-50 0 -76.5 23t-37.5 52t-12 55.5t-1 34.5q0 39 13.5 78t38.5 75.5t59.5 70.5t75.5 63l48 -64v0z" />
    <glyph glyph-name="quoteright" unicode="&#x2019;" horiz-adv-x="652" 
d="M296 1230q28 19 48.5 34t35.5 31.5t25 37.5t16 52q-60 2 -90.5 26.5t-30.5 92.5q0 52 28 83t76 31q33 0 55.5 -11t37 -27.5t21.5 -36.5t10 -38.5t3 -32.5v-19q0 -39 -14 -78t-38.5 -75.5t-59 -70.5t-75.5 -63l-48 64v0z" />
    <glyph glyph-name="ellipsis" unicode="&#x2026;" horiz-adv-x="1812" 
d="M393 101q0 -21 -8 -39.5t-21.5 -32t-32 -21.5t-39.5 -8t-39.5 8t-32 21.5t-21.5 32t-8 39.5t8 39.5t21.5 32t32 21.5t39.5 8t39.5 -8t32 -21.5t21.5 -32t8 -39.5zM1005 101q0 -21 -8 -39.5t-21.5 -32t-32 -21.5t-39.5 -8t-39.5 8t-32 21.5t-21.5 32t-8 39.5t8 39.5
t21.5 32t32 21.5t39.5 8t39.5 -8t32 -21.5t21.5 -32t8 -39.5zM1618 101q0 -21 -8 -39.5t-21.5 -32t-32 -21.5t-39.5 -8t-39.5 8t-32 21.5t-21.5 32t-8 39.5t8 39.5t21.5 32t32 21.5t39.5 8t39.5 -8t32 -21.5t21.5 -32t8 -39.5z" />
    <glyph glyph-name="Euro" unicode="&#x20ac;" horiz-adv-x="1302" 
d="M228 506h-128l23 111h95v141h-118l23 111h106q18 118 74 211.5t138 158t185 99t216 34.5q42 0 78.5 -3t70.5 -8t66.5 -12.5t65.5 -17.5l-30 -100q-21 13 -50.5 22.5t-63.5 16t-70 9.5t-70 3q-82 0 -153 -34.5t-126.5 -92t-93.5 -132t-53 -154.5h616l-26 -111h-604v-141
h581l-26 -111h-541v-3q15 -80 53 -154.5t93.5 -132t126.5 -92t153 -34.5q34 0 70 3t70 9.5t63.5 16t50.5 22.5l30 -100q-33 -10 -65.5 -17.5t-66.5 -13t-70.5 -8t-78.5 -2.5q-113 0 -216 33t-185 96.5t-138 155.5t-74 210z" />
    <glyph glyph-name="minus" unicode="&#x2212;" horiz-adv-x="1287" 
d="M255 502v117h772v-117h-772z" />
    <glyph glyph-name="uni25CC" unicode="&#x25cc;" horiz-adv-x="1305" 
d="M213 617q7 -56 27 -105l-98 -56q-33 75 -42 161h113v0zM1188 617q-5 -43 -15.5 -83t-26.5 -77l-99 57q10 24 17 50t11 53h113v0zM912 333q43 33 76 76l98 -56q-25 -34 -54.5 -63t-62.5 -54l-57 97v0zM299 408q17 -22 36 -41.5t40 -36.5l-55 -96q-68 50 -118 118l97 56v0z
M377 1020q-21 -17 -40 -35.5t-36 -39.5l-98 56q25 34 54.5 63t63.5 54l56 -98v0zM101 737q9 85 42 160l97 -56q-19 -49 -27 -104h-112v0zM585 1107q-56 -8 -103 -27l-57 98q38 16 78 26.5t82 15.5v-113v0zM705 245q56 8 104 28l56 -97q-38 -17 -78 -27.5t-82 -15.5v112v0z
M585 133q-86 9 -161 42l56 96q25 -10 51 -17t54 -10v-111v0zM1075 737q-4 27 -11 52.5t-17 49.5l97 57q34 -77 44 -159h-113v0zM987 943q-17 21 -36 39.5t-40 35.5l56 97q33 -25 62.5 -54t54.5 -62l-97 -56v0zM705 1219q84 -11 158 -44l-56 -96q-24 10 -50 17t-52 11v112v0z
" />
    <glyph glyph-name="uni262C" unicode="&#x262c;" horiz-adv-x="2123" 
d="M1228 1621q18 -9 9 -38q-7 -26 -15 -52q189 -26 322 -160q17 -16 33 -35q148 -172 142 -403q-6 -222 -206 -425l-6 -6q-133 -133 -279 -190v-4q7 -28 -26 -66t-67 -42l-14 -2l1 -228l270 168q87 52 154 119q176 176 247 470q95 387 -225 711h-1q-12 12 -4 36t32.5 48.5
t48.5 32.5t36 -4l22 -21q363 -363 346 -703q-14 -272 -359 -796v0q-9 -14 -20 -26q-11 -10 -23 -18q-26 -17 -46 -15q-12 1 -18 9q-15 13 -131 94q-28 -20 -57 -38l-238 -146q177 -114 295 -200l2.5 -2.5l2.5 -2.5q26 -33 36 -53q11 -21 14 -42q6 -54 -47 -106
q-5 -6 -10 -10q-23 -20 -45 -33t-44 -16.5t-35 10.5q-27 27 4 149q-61 50 -154 112l-52 34l1 -130q0 -3 -1 -7q5 -2 8 -8l42 -77q4 -6 3 -16q-2 -35 -11 -62t-23.5 -47t-26.5 -32q-13 -14 -29 -24q-13 -9 -21 -13t-19 -6t-29 -6q-35 -1 -55 19q-27 28 -28 94q0 42 12 77
q10 26 27 49t24 29l-1 217l-177 -119q13 -54 11 -83q0 -18 -5.5 -33.5t-11.5 -24t-13 -16.5t-8 -10q-58 -58 -103 -36q-8 4 -31 22q-1 0 -3 3q-21 20 -19 52t20 68q18 33 48 70q12 15 28 28l2 1l2 2q85 62 198 137l-238 144q-36 22 -70 47l-97 -69q0 -2 -2 -5q-4 -3 -5 -1
q-8 -18 -25.5 -33.5t-34 -19t-22.5 6.5t1 28q-333 508 -347 769q-18 358 377 753l19 19l1 1q25 24 48.5 31.5t35.5 -4.5t4 -36t-32 -48q-289 -292 -198 -669q77 -314 274 -511q79 -80 179 -140l193 -119l-1 193q0 6 2 14l-18 2q-35 4 -68 43q-16 18 -22 34q-152 27 -288 132
q-29 22 -53 46q-140 140 -148 365q-11 298 191 500q24 24 50 46q115 96 257 137q-10 41 -22 81q-9 28 9 37l88 46q42 22 85 21q65 0 83 -23zM1191 1395q-90 -455 15 -982q134 35 244 145l5 5q133 135 137 296q6 208 -131 367q-14 16 -30 32q-103 103 -240 137zM908 421
q103 526 13 979q-146 -25 -245 -108q-16 -13 -29 -26q-130 -130 -122 -366q7 -202 135 -330q23 -22 49 -43q96 -73 199 -106z" />
    <glyph glyph-name="uni0A47_uni0A02.abvs" horiz-adv-x="410" 
d="M-1193 1708q82 82 253 82q304 0 703 -377q41 -38 59 -79.5t3 -61.5t-55 -7q-48 16 -80 51q-237 266 -490 266q-138 0 -202 -65q-13 -13 -24 -30q-13 -21 -51.5 -9.5t-80 49t-61 79t-5.5 63.5q13 21 31 39zM53 1600q0 71 66 119q31 22 81 25q66 5 114 -64q36 -52 36 -96
q0 -63 -33 -96q-48 -48 -117 -48q-71 0 -108 48q-39 51 -39 112zM407 1130h-409l-24 138l27 4h409l24 -138z" />
    <glyph glyph-name="uni0A70_uni0A47.abvs" 
d="M-233 1416q-46 10 -15 55q34 49 34 103q0 60 -34 103q-12 15 -86 15q-72 0 -80 -15q-37 -73 -34 -103q0 -3 34 -103q25 -74 -48 -61q-54 10 -70 26q-79 82 -79 204q0 119 79 203q67 71 188 71q143 0 199 -71q80 -84 80 -203q0 -77 -80 -204q-21 -35 -88 -20z" />
    <glyph glyph-name="uni0A4C_uni0A02.abvs" horiz-adv-x="408" 
d="M-911 1769q-145 103 -145 436h34q-13 -165 145 -266q140 -91 285 -117q176 -32 286 -140q123 -123 123 -260v-122h-34q0 84 -86 185q-75 88 -163 133q33 -104 33 -205v-115h-34q0 72 -42 177q-45 114 -101 187q-182 23 -301 107zM53 1600q0 71 66 119q31 22 81 25
q66 5 114 -64q36 -52 36 -96q0 -63 -33 -96q-48 -48 -117 -48q-71 0 -108 48q-39 51 -39 112zM407 1130h-409l-24 138l27 4h409l24 -138z" />
    <glyph glyph-name="uni0A30_uni0A4D.vatu" 
d="M142 -291l-4 4q-34 34 -151.5 90t-182.5 73q-18 -32 -51 -61q-110 -100 -192 -19q-16 17 -16 38q0 66 60.5 103t130.5 42v207q0 20 13 34q14 16 32 20q24 5 32 -6q13 -18 13 -28v-236q78 -19 228 -90.5t168 -111.5q1 -2 9 -23q4 -17 -6.5 -34.5t-29 -25t-34 -0.5
t-18.5 24h-1z" />
    <glyph glyph-name="uni0A35_uni0A4D.vatu" 
d="M-291 -143q-31 0 -48 -21q-18 -21 -18 -51t18 -51q17 -21 47 -21q29 0 46 38l1 3h3h78l6 1l-1 -7q-8 -39 -43 -76q-36 -37 -92 -37h-1h-1q-56 0 -92 35q-35 34 -41 57q-3 13 -7 17q-1 1 -2 1h-9q-72 0 -117 53q-39 47 -39 97q0 7 1 15q12 101 124 169q50 31 174 31
q23 0 48 -1v110v5h5h55h5v-5v-143q0 -18 -16 -36q-15 -18 -31 -18h-1q-40 2 -74 2q-135 0 -175 -29q-49 -37 -49 -72v-1q0 -35 36 -67t64 -34q1 0 3 2q3 3 6 14q6 21 39 56q34 35 92.5 35t93.5 -36q34 -35 43 -72l1 -6h-6h-76h-3l-1 3q-16 40 -46 40z" />
    <glyph glyph-name="uni0A39_uni0A4D.vatu" 
d="M-179 226q27 -69 26 -185q-1 -150 -63 -207q-21 -20 -57 -38.5t-119.5 -18.5t-121.5 38q-53 55 -53 102.5t44 91.5q14 15 33 17t30.5 -9.5t9.5 -30.5t-14.5 -31t-12.5 -17q0 -17 26 -44t82 -27q84 0 104.5 33.5t21 127.5t-13.5 130t-6 54t25.5 28t34.5 6t24 -20z" />
    <glyph glyph-name="uni0A2F_uni0A4D.pstf" horiz-adv-x="819" 
d="M525 1132h-528l-25 138l28 5h822l24 -138l-27 -5h-150v-976l-24 -24l-120 120v485h-181q-9 -192 -68 -254l-24 -25q-61 -55 -202 -58v112q80 -20 144 5q20 65 20 246q0 51 -1 107h312v262z" />
    <glyph glyph-name="uni0A48_uni0A02.abvs" horiz-adv-x="400" 
d="M-975 1850q55 54 161 54q109 0 216 -53q122 -61 205 -151q127 -138 228 -353q26 -56 -2 -72q-44 -23 -103 21q-213 158 -465 156q-84 -1 -152 -69q-28 -28 -50 -71q-12 -23 -50 -13.5t-79.5 46t-62.5 78.5t-10 65q27 52 61 86q51 51 121 63q-27 26 -46 57q-25 43 -18 71
q13 52 46 85zM-805 1629q187 -36 472 -186q-65 106 -104 137q-148 116 -237 116q-73 0 -110 -37q-12 -13 -21 -30zM53 1600q0 71 66 119q31 22 81 25q66 5 114 -64q36 -52 36 -96q0 -63 -33 -96q-48 -48 -117 -48q-71 0 -108 48q-39 51 -39 112zM407 1130h-409l-24 138l27 4
h409l24 -138z" />
    <glyph glyph-name="uni0A4B_uni0A02.abvs" horiz-adv-x="400" 
d="M53 1600q0 71 66 119q31 22 81 25q66 5 114 -64q36 -52 36 -96q0 -63 -33 -96q-48 -48 -117 -48q-71 0 -108 48q-39 51 -39 112zM407 1130h-409l-24 138l27 4h409l24 -138zM-845 1742q-79 104 -79 280q-2 69 -2 172h34q-5 -171 81 -282q91 -117 234 -147q133 -28 234 -96
q123 -83 160 -267v-132h-34q-21 135 -160 229q-101 68 -234 96t-234 147z" />
    <glyph glyph-name="uni0A40_uni0A02.abvs" horiz-adv-x="688" 
d="M428 1732q31 22 89 26t100 -56.5t42 -114t-40.5 -94t-110.5 -40.5t-108 49.5t-38 115.5t66 114zM-462 1447l60 -73l-24 -24l-37 34l-120 120q-64 64 -64 116q-1 89 90 168q55 48 213 48q197 0 372 -144q246 -203 278 -421h445l24 -138l-28 -4h-437v-977l-24 -24l-120 120
v881h-168l-24 138l28 4h164q-4 149 -150 277q-173 150 -312 148q-106 -1 -158.5 -47t-52.5 -115q0 -33 45 -87z" />
    <glyph glyph-name="glyph148" 
d="M-244 -186q-16 42 -47 42.5t-48.5 -20.5t-17.5 -51t17.5 -51t48 -20.5t46.5 40.5h3l84 1q-7 -45 -43.5 -82.5t-92.5 -37.5h-2q-56 0 -91.5 34.5t-39.5 52.5q-7 23 -10 23h-10q-72 0 -114 50t-42 100q0 107 125 184q50 31 174 31q23 0 48 -1v93l-6 6l6 6v10h9l9 8l10 -8
h37v-30l361 -298l120 -120l-24 -24l-408 336l-49 49v-61q0 -18 -15.5 -36t-31.5 -18l-75 2q-135 0 -179.5 -33t-44.5 -68v-1q0 -35 36 -67t64 -34q4 0 9.5 18.5t39 53.5t92 35t92.5 -36q37 -37 45 -78h-6h-76h-3z" />
    <glyph glyph-name="glyph149" 
d="M266 -248l-408 336l-12 12q13 -197 -62 -266q-21 -20 -57 -38.5t-119.5 -18.5t-129 46.5t-45.5 94t44 91.5q14 15 33 17t30.5 -9.5t9.5 -30.5t-14.5 -31t-12.5 -23t26 -38t96 -27t90.5 33.5t21 127.5t-13.5 130t-6 54t25.5 28t34.5 6q26 -6 40 -75l333 -275l120 -120z
" />
    <glyph glyph-name="glyph153" 
d="M142 -291l-4 4q-34 34 -151.5 90t-182.5 73q-18 -32 -51 -61q-110 -100 -192 -19q-16 17 -16 38q0 66 60.5 103t130.5 42v207q0 11 4 20l-2 2q23 28 45 32.5t30 -6.5q13 -18 13 -28v-27l344 -283l120 -120l-24 -24l-408 336l-32 32v-150q78 -19 228 -90.5t168 -111.5
q1 -2 9 -23q4 -17 -6.5 -34.5t-29 -25t-34 -0.5t-18.5 24h-1z" />
    <glyph glyph-name="uni0A0A_uni0A02.abvs" horiz-adv-x="1642" 
d="M1363 1719q31 22 89 26t100 -56.5t42 -114t-40.5 -94t-110.5 -40.5t-108 49.5t-38 115.5t66 114zM320 1271h756q10 59 10 119q0 172 -76 229q-117 89 -228 88q-227 -1 -375 -246q-55 -91 -87 -190zM900 890q91 117 137 239h-751q-11 -74 -11 -151q0 -333 176 -509
q116 -116 257.5 -116t208.5 69q90 92 90 215q0 73 -39 113q-61 63 -173 47.5t-212 -101.5q-16 -14 -64 -12q-26 1 -43 59q-5 18 11 63q5 12 50 40q68 43 363 44zM994 879q51 -19 86 -72.5t35 -111.5q-3 -199 -153 -341q-121 -115 -300 -115q-250 0 -396 221
q-113 172 -113 461q0 104 22 208h-177l-24 138l28 4h216q83 222 238.5 382.5t412.5 162.5q114 1 235 -90q96 -73 96 -278q0 -89 -19 -177h492l24 -138l-28 -4h-532q-51 -127 -143 -250zM932 -43q98 -25 93 -53q-8 -37 -195 -45q-99 -4 -236 21q-65 13 -94.5 43.5t-18.5 73.5
t50 62q18 9 72 2q104 -13 129 -77zM926 -236q105 1 107 -25q3 -36 -179 -88q-96 -28 -239 -37q-142 -9 -145 81q-1 41 23.5 60t79.5 26q106 13 149 -39z" />
    <glyph glyph-name="uni0A13_uni0A02.abvs" horiz-adv-x="1546" 
d="M1258 1719q31 22 89 26t100 -56.5t42 -114t-40.5 -94t-110.5 -40.5t-108 49.5t-38 115.5t66 114zM903 894q89 115 135 235h-752q-11 -69 -11 -140q0 -344 177 -520q115 -116 274 -116q125 0 192 69q89 92 89 215q0 57 -44.5 101.5t-184.5 44.5t-227 -61q-23 -16 -43 -15
t-25 18t8 41t36 40q131 91 306 91q38 0 70 -3zM992 876q63 -22 96 -72.5t33 -108.5q-3 -198 -159 -341q-117 -115 -298 -115q-239 0 -389 227q-114 172 -114 465q0 100 20 198h-183l-24 138l28 4h219q37 102 98 206.5t136 179.5q150 150 325 151q133 1 264 -98
q14 -10 9.5 -32.5t-24 -44t-43 -29.5t-36.5 2q-117 89 -231 88q-175 -1 -311 -232q-54 -94 -87 -191h1247l24 -138l-28 -4h-427q-52 -129 -145 -253z" />
    <glyph glyph-name="uni0A09_uni0A02.abvs" horiz-adv-x="1658" 
d="M1371 1719q31 22 89 26t100 -56.5t42 -114t-40.5 -94t-110.5 -40.5t-108 49.5t-38 115.5t66 114zM320 1271h756q10 59 10 119q0 172 -76 229q-117 89 -228 88q-227 -1 -375 -246q-55 -91 -87 -190zM900 890q91 117 137 239h-751q-11 -74 -11 -151q0 -333 176 -509
q116 -116 257.5 -116t208.5 69q90 92 90 215q0 73 -39 113q-61 63 -173 47.5t-212 -101.5q-16 -14 -64 -12q-26 1 -43 59q-5 18 11 63q5 12 50 40q68 43 363 44zM994 879q51 -19 86 -72.5t35 -111.5q-3 -199 -153 -341q-121 -115 -300 -115q-250 0 -396 221
q-113 172 -113 461q0 104 22 208h-177l-24 138l28 4h216q83 222 238.5 382.5t412.5 162.5q114 1 235 -90q96 -73 96 -278q0 -89 -19 -177h500l24 -138l-28 -4h-540q-51 -127 -143 -250zM923 39q102 -9 102 -42q0 -45 -181 -93q-96 -26 -236 -24q-67 1 -102 30.5t-33 82
t27 74.5t80 26q104 6 142 -63z" />
    <glyph glyph-name="glyph160" horiz-adv-x="1712" 
d="M1640 1715q0 -108 -62 -195.5t-166 -87.5t-168 83.5t-64 199.5q0 21 14 36t34 15t34 -15t14 -43t36.5 -67.5t95 -39.5t96.5 36.5t37 65.5t14 45t36 16.5t35 -14.5t14 -35zM903 894q89 115 135 235h-752q-11 -69 -11 -140q0 -344 177 -520q115 -116 274 -116q125 0 192 69
q89 92 89 215q0 57 -44.5 101.5t-184.5 44.5t-227 -61q-23 -16 -43 -15t-25 18t8 41t36 40q131 91 306 91q38 0 70 -3zM992 876q63 -22 96 -72.5t33 -108.5q-3 -198 -159 -341q-117 -115 -298 -115q-239 0 -389 227q-114 172 -114 465q0 100 20 198h-183l-24 138l28 4h219
q37 102 98 206.5t136 179.5q150 150 325 151q133 1 264 -98q14 -10 9.5 -32.5t-24 -44t-43 -29.5t-36.5 2q-117 89 -231 88q-175 -1 -311 -232q-54 -94 -87 -191h1401l24 -138l-27 -4h-582q-52 -129 -145 -253z" />
    <glyph glyph-name="uni0A15_uni0A3C.nukt" horiz-adv-x="975" 
d="M487 492q-66 188 -188 189q-60 0 -82 -9q-32 -32 -33.5 -100t65.5 -127t166 -58q54 0 106 29q-22 39 -34 76zM628 505q138 146 144 624h-774l-24 138l28 4h986l24 -138l-27 -4h-100q-3 -105 -13 -193q-15 -130 -42.5 -219t-58.5 -149q-33 -63 -71 -104l-27 -28
q54 -72 114 -130l59 -56q12 -11 6 -34q-6 -22 -26 -43t-43 -28q-23 -6 -35 5l-60 57q-64 61 -120 138q-105 -71 -210 -72q-115 -1 -212 76q-77 62 -76 180q0 55 25 107q23 50 66 92q66 67 195 67q87 0 150 -63q55 -55 91 -159q11 -33 31 -68zM77 144q0 45 47 76q23 14 59 16
q47 3 82 -41q25 -33 25 -62q0 -40 -23 -61q-35 -31 -84 -31q-52 0 -78 31q-28 33 -28 72z" />
    <glyph glyph-name="uni0A18_uni0A3C.nukt" horiz-adv-x="1263" 
d="M1165 1129v-977l-24 -24l-120 120v377l-37 -33q-104 -93 -226 -100q-85 -5 -120 76q-10 22 -18 44q-29 -25 -64 -51q-94 -71 -197 -75q-113 -3 -179 63t-65 156q3 99 55 171q21 29 20 117q-1 90 -51 136h-144l-24 138l27 4h177q127 -65 129 -204q1 -100 -16 -146
q-15 -40 -37 -74t-22 -92q0 -64 54 -110.5t123.5 -44.5t112.5 35q42 31 83 61v433h-138l-24 138l27 4h245l24 -135v-459q16 -40 32 -56.5t42 -14.5q73 4 120 46q52 45 76 69l15 16v529l28 5h235l24 -138l-28 -4h-115zM127 358q0 45 47 76q23 14 59 16q47 3 82 -41
q25 -33 25 -62q0 -40 -23 -61q-35 -31 -84 -31q-52 0 -78 31q-28 33 -28 72z" />
    <glyph glyph-name="uni0A1A_uni0A3C.nukt" horiz-adv-x="1181" 
d="M214 783q0 -22 16 -38t39 -16t39 16t16 38t-16 38t-39 16t-39 -16t-16 -38zM401 780h543q5 150 6 349h-950l-24 138l27 4h1191l24 -138l-27 -4h-128v-85q-1 -75 -5 -206t-12 -220.5t-23.5 -178t-36.5 -130.5q-14 -26 -33 -45l-1 -1v0q-30 -31 -72 -53q-92 -50 -241 -51
q-137 -1 -240 106l-12 13q-80 82 -81 337q-1 21 -49 21q-60 0 -102 42t-42 102t42 102t102 42t102 -42t42 -102zM938 666h-518q9 -231 67 -290l11 -12q89 -92 198 -91q130 1 180 33l14 8q25 51 42 257q4 44 6 95zM137 242q0 45 47 76q23 14 59 16q47 3 82 -41q25 -33 25 -62
q0 -40 -23 -61q-35 -31 -84 -31q-52 0 -78 31q-28 33 -28 72z" />
    <glyph glyph-name="uni0A1B_uni0A3C.nukt" horiz-adv-x="1229" 
d="M306 341q-1 -97 108 -159q58 -32 175 -41q-17 174 6 345q-170 -2 -231 -37q-57 -33 -58 -108zM266 470q-101 68 -101 176q0 132 64 187q108 93 475 91q247 -2 311 28q13 17 17.5 81t-13.5 96h-1021l-24 138l28 4h1251l25 -138l-28 -4h-103q7 -152 -76 -234
q-24 -24 -50 -38q-88 -47 -366.5 -47t-369.5 -39q-6 -20 -6 -71q0 -84 104 -140q80 40 297.5 40t299.5 -47q133 -76 130 -212q-2 -110 -89 -197q-48 -48 -100 -73q-94 -47 -299.5 -47t-295.5 52q-136 77 -134 207q2 106 74 187zM711 138q139 2 218 35q66 41 67 110
q1 71 -51 123q-22 22 -55 41q-53 30 -188 37q-6 -67 -6 -137q0 -109 15 -209zM91 -67q0 45 47 76q23 14 59 16q47 3 82 -41q25 -33 25 -62q0 -40 -23 -61q-35 -31 -84 -31q-52 0 -78 31q-28 33 -28 72z" />
    <glyph glyph-name="uni0A1D_uni0A3C.nukt" horiz-adv-x="1167" 
d="M1025 1129q-98 -206 -291 -353q120 -58 269 -102q23 -6 16.5 -36.5t-36.5 -55.5l-213 -175l348 -146q16 -7 15 -28t-18.5 -43.5t-41 -33.5t-39.5 -4l-406 171q-21 9 -13.5 38t35.5 53l208 170q-140 46 -253 106q-184 -106 -431 -168q-23 -6 -34.5 6.5t-4.5 35t27.5 43
t43.5 26.5q174 44 310 108q-243 155 -342 388h-176l-24 138l28 4h1177l24 -138l-27 -4h-151zM325 1129q108 -184 328 -310q186 124 274 310h-602zM153 279q0 45 47 76q23 14 59 16q47 3 82 -41q25 -33 25 -62q0 -40 -23 -61q-35 -31 -84 -31q-52 0 -78 31q-28 33 -28 72z
" />
    <glyph glyph-name="uni0A1E_uni0A3C.nukt" horiz-adv-x="1167" 
d="M550 220q-2 8 -15 7q-255 4 -347 96q-80 80 -64 183q11 74 73 138q117 121 244 152q-40 30 -66 56q-76 76 -74 175q1 57 20 102h-325l-24 138l27 4h1176l24 -138l-28 -4h-138q22 -208 -90.5 -308.5t-313.5 -108t-275 -45.5h1q-117 -70 -118 -137.5t73 -128.5
q62 -50 234 -58q9 -2 11 7q20 56 73 100q91 75 198 75q117 0 199 -73q55 -48 73 -110h-156q-12 28 -31 44q-48 40 -97 40q-55 0 -94 -40q-34 -35 -34 -99q0 -61 43 -101q48 -43 98 -43q55 0 93 39q2 2 20 37l161 1q-15 -64 -80 -116q-96 -77 -195 -77q-117 0 -200 73
q-59 52 -76 120zM709 829q133 6 192 62q21 20 21 108q-1 84 -18 130h-483q-32 -105 66 -190q129 -114 222 -110zM81 158q0 45 47 76q23 14 59 16q47 3 82 -41q25 -33 25 -62q0 -40 -23 -61q-35 -31 -84 -31q-52 0 -78 31q-28 33 -28 72z" />
    <glyph glyph-name="uni0A1F_uni0A3C.nukt" horiz-adv-x="1104" 
d="M869 1129q27 -88 26 -171t-73 -155q-34 -34 -81 -62q-147 -85 -354 -85q-86 0 -111.5 -27t-26.5 -101q-1 -132 95 -203q150 -111 321 -100q122 8 243 121q21 20 43.5 25t33 -8t3 -36t-29.5 -43q-172 -161 -357 -173.5t-351 110.5q-117 87 -115 251q1 129 83 213t242.5 85
t270.5 65q22 12 36 26t14 40q2 108 -54 228h-729l-24 138l28 4h1119l24 -138l-28 -4h-248zM53 106q0 45 47 76q23 14 59 16q47 3 82 -41q25 -33 25 -62q0 -40 -23 -61q-35 -31 -84 -31q-52 0 -78 31q-28 33 -28 72z" />
    <glyph glyph-name="uni0A20_uni0A3C.nukt" horiz-adv-x="1133" 
d="M887 1129q27 -88 26 -177t-92 -167q121 -60 169 -160q87 -182 -22 -343.5t-325 -170t-375 109.5q-117 87 -115 251q1 129 83 213t242.5 85t270.5 65q22 12 36 26t14 40q2 108 -54 228h-747l-24 138l28 4h1145l24 -138l-28 -4h-256zM677 702q-120 -46 -239 -46t-144.5 -27
t-26.5 -101q-1 -132 95 -203q143 -107 307.5 -100.5t215.5 82.5q63 94 -3 232q-52 107 -205 163zM79 66q0 45 47 76q23 14 59 16q47 3 82 -41q25 -33 25 -62q0 -40 -23 -61q-35 -31 -84 -31q-52 0 -78 31q-28 33 -28 72z" />
    <glyph glyph-name="uni0A19_uni0A3C.nukt" horiz-adv-x="1032" 
d="M804 354q54 -55 125 -112q13 -10 8 -32.5t-25 -43.5t-43 -29t-36 3q-98 80 -162 152q-116 -42 -245 -43t-210 80.5t-57 192.5q13 60 57.5 112t89.5 71t136 20q160 2 239 -198q20 -50 64 -106q79 35 98.5 71t19.5 75q0 136 -111 211.5t-556 75.5q-28 0 -28 28v247h-170
l-24 138l28 4l1042 1l25 -138l-28 -5h-759v-161q441 -2 568 -89t127 -254q0 -113 -92 -207q-34 -35 -81 -64zM571 445q-66 167 -194 166q-73 -1 -90.5 -19.5t-18.5 -72t65 -105.5q98 -76 275 -39q-23 36 -37 70zM95 135q0 45 47 76q23 14 59 16q47 3 82 -41q25 -33 25 -62
q0 -40 -23 -61q-35 -31 -84 -31q-52 0 -78 31q-28 33 -28 72z" />
    <glyph glyph-name="uni0A23_uni0A3C.nukt" horiz-adv-x="1336" 
d="M826 143q-366 0 -541 175q-106 106 -106.5 278.5t146.5 263.5q74 45 161 45q149 0 229 -78q82 103 92 302h-809l-24 138l28 4h1336l25 -138l-28 -4h-419q-6 -58 -18 -110q199 -180 330 -629q6 -18 -7 -41.5t-36 -39.5t-43 -15t-25 18q-115 395 -273 563
q-50 -97 -133 -165q-50 -40 -71 -10q-64 91 -212 91q-72 0 -104 -32.5t-31 -113.5q0 -163 128 -260q168 -128 463 -128q20 0 26 -16.5t-6 -40.5t-35 -40.5t-43 -16.5zM103 182q0 45 47 76q23 14 59 16q47 3 82 -41q25 -33 25 -62q0 -40 -23 -61q-35 -31 -84 -31
q-52 0 -78 31q-28 33 -28 72z" />
    <glyph glyph-name="uni0A24_uni0A3C.nukt" horiz-adv-x="1073" 
d="M737 783q97 -36 143 -83q74 -74 74 -199q0 -159 -149.5 -265t-335.5 -106t-303 115q-12 12 -6 34.5t26.5 43.5t43.5 27t34 -5q103 -101 256.5 -101t260.5 76q59 42 59 133q-1 120 -97 178q-139 84 -398 98q-20 2 -25 19t8 41t36 39.5t64 13.5t96 -9q170 18 243 63
q18 18 18 102t-50 131h-737l-24 138l28 4h1080l24 -138l-28 -4h-188q24 -95 -4.5 -186t-101.5 -136q-22 -13 -47 -24zM767 896l1 1zM83 21q0 45 47 76q23 14 59 16q47 3 82 -41q25 -33 25 -62q0 -40 -23 -61q-35 -31 -84 -31q-52 0 -78 31q-28 33 -28 72z" />
    <glyph glyph-name="uni0A16_uni0A3C.nukt" horiz-adv-x="1093" 
d="M946 1129v-977l-24 -24l-120 120v238l-16 -19q-11 -13 -25 -22q-148 -99 -268 -102q-147 -3 -219 69q-9 9 -16 19q-63 80 -90 315q-3 31 -7 383h-154l-24 138l27 4h263q1 -3 1 -8q2 -242 4 -355h524v363h300l25 -138l-28 -4h-153zM802 766h-514q27 -182 72 -241
q6 -7 13 -14q57 -57 176 -54q79 2 178 65l75 89v155zM91 278q0 45 47 76q23 14 59 16q47 3 82 -41q25 -33 25 -62q0 -40 -23 -61q-35 -31 -84 -31q-52 0 -78 31q-28 33 -28 72z" />
    <glyph glyph-name="uni0A22_uni0A3C.nukt" horiz-adv-x="1308" 
d="M229 667.5q0 -38.5 28 -65.5t66.5 -27t66.5 27t28 65.5t-28 66t-66.5 27.5t-66.5 -27.5t-28 -66zM994 436.5q0 -38.5 28 -65.5t67 -27t66.5 27t27.5 65.5t-27.5 65.5t-66.5 27t-67 -27t-28 -65.5zM1209 315l-57 -55q-149 -138 -336 -137q-200 1 -321 124
q-109 107 -120 255q-24 -7 -51 -7q-71 0 -120 51.5t-49 125.5t49 126t120 52q74 0 119 -52q6 -7 12 -13q29 40 69 77q147 137 343 137q112 0 204 -46l1 176h-1074l-24 138l28 4h1314l24 -138l-28 -4h-126l-1 -272q0 -38 -42 -69t-64 -10q-114 107 -263 107q-157 -1 -243 -87
q-87 -87 -86 -216q1 -139 113 -242q110 -103 260 -103q98 0 171 37q-34 13 -61 41q-50 52 -50 126t49.5 126t119.5 52t119.5 -52t49.5 -126t-49 -126zM99 266q0 45 47 76q23 14 59 16q47 3 82 -41q25 -33 25 -62q0 -40 -23 -61q-35 -31 -84 -31q-52 0 -78 31q-28 33 -28 72z
" />
    <glyph glyph-name="uni0A26_uni0A3C.nukt" horiz-adv-x="1343" 
d="M237 667.5q0 -38.5 28 -65.5t66.5 -27t66.5 27t28 65.5t-28 66t-66.5 27.5t-66.5 -27.5t-28 -66zM212 798q49 52 124.5 52t127.5 -66q155 215 411 215q112 0 204 -46l1 176h-1082l-24 138l28 4h1355l24 -138l-28 -4h-159l-1 -272q0 -38 -42 -69t-64 -10
q-114 107 -268 107q-152 -1 -244 -94q-80 -80 -79 -214t110 -235q113 -105 262 -105q159 0 239 83l66 69q20 21 43 28t35.5 -3.5t6 -38.5t-95.5 -112q-146 -140 -344 -139q-194 0 -321 129q-105 105 -115 249q-23 -7 -50 -7q-71 0 -120 51.5t-49 125.5t49 126zM105 184
q0 45 47 76q23 14 59 16q47 3 82 -41q25 -33 25 -62q0 -40 -23 -61q-35 -31 -84 -31q-52 0 -78 31q-28 33 -28 72z" />
    <glyph glyph-name="uni0A28_uni0A3C.nukt" horiz-adv-x="1319" 
d="M1062 342q10 2 11 18t-3 25q-32 68 -196 255.5t-220 210.5q-48 -28 -199.5 -203.5t-166.5 -217.5v-34t25.5 -43t165.5 -17q20 0 26 -16.5t-6 -40.5t-35 -40.5t-43 -16.5q-177 0 -211 34t-35.5 98.5t55.5 143.5t180 221t214 208v202h-626l-24 138l28 4h1329l24 -138
l-28 -4h-589v-169q6 -3 255 -243q14 -14 44 -51l67 -81q87 -107 84 -159q-9 -142 -103 -179q-61 -24 -202 -25q-20 0 -26 16.5t6 40.5t35 40.5t43 16.5q80 0 121 6zM95 99q0 45 47 76q23 14 59 16q47 3 82 -41q25 -33 25 -62q0 -40 -23 -61q-35 -31 -84 -31q-52 0 -78 31
q-28 33 -28 72z" />
    <glyph glyph-name="uni0A2A_uni0A3C.nukt" horiz-adv-x="1126" 
d="M952 1129l-1 -977l-24 -24l-120 120v238l-16 -19q-11 -13 -25 -22q-148 -99 -281 -102q-151 -4 -217.5 81t-94.5 323q-3 24 -7 382h-168l-24 138l28 4h278q4 -435 7 -458q26 -236 87 -297.5t180 -58.5q79 2 178 65l75 89v660h334l24 -138l-28 -4h-185zM79 294q0 45 47 76
q23 14 59 16q47 3 82 -41q25 -33 25 -62q0 -40 -23 -61q-35 -31 -84 -31q-52 0 -78 31q-28 33 -28 72z" />
    <glyph glyph-name="uni0A2C_uni0A3C.nukt" horiz-adv-x="1141" 
d="M2 1271h1152l24 -138l-28 -4h-178v-977l-24 -24l-120 120v238q-21 -28 -48 -47q-153 -103 -271.5 -105.5t-231.5 82.5q-70 53 -88 156q-4 22 16 50.5t41.5 42.5t25 17.5t12.5 29.5t10 69q-53 51 -85 145.5t-33 202.5h-178l-24 138zM332 1052q35 -105 81 -149h415v226
h-513q5 -43 17 -77zM413 771q-21 -78 -82 -142q19 -56 62 -89q100 -76 185 -74t177 59l73 87v159h-415zM79 298q0 45 47 76q23 14 59 16q47 3 82 -41q25 -33 25 -62q0 -40 -23 -61q-35 -31 -84 -31q-52 0 -78 31q-28 33 -28 72z" />
    <glyph glyph-name="uni0A2D_uni0A3C.nukt" horiz-adv-x="1263" 
d="M867 735q-125 106 -276 108t-194 -39q-5 -4 -5 -20q-1 -51 50 -93.5t198.5 -42.5t203.5 62q13 12 23 25zM1040 1129q39 -187 -34 -334q110 -116 120 -250q13 -180 -164 -306q-131 -93 -354 -93q-299 0 -484 178q-12 12 -6 34.5t26.5 43t43 27t34.5 -4.5
q171 -164 444 -164q214 0 302 88q50 50 43 144t-86 186q-17 -18 -36 -36q-113 -108 -301.5 -108t-257.5 69q-54 54 -52 127q3 103 115 173q91 56 253 54t285 -94q7 31 7 64q1 148 -38 202h-902l-24 138l28 4h1273l24 -138l-28 -4h-231zM59 113q0 45 47 76q23 14 59 16
q47 3 82 -41q25 -33 25 -62q0 -40 -23 -61q-35 -31 -84 -31q-52 0 -78 31q-28 33 -28 72z" />
    <glyph glyph-name="uni0A27_uni0A3C.nukt" horiz-adv-x="1145" 
d="M2 1271h1152l24 -138l-28 -4h-181v-977l-24 -24l-120 120v238q-21 -28 -48 -47q-153 -103 -286 -106q-151 -3 -214.5 78.5t-94.5 321.5q-5 38 -8 396h-176l-24 138zM314 827q32 -245 92 -305q59 -58 179 -56q75 2 167 59l73 87v517h-518q3 -272 7 -302zM71 322
q0 45 47 76q23 14 59 16q47 3 82 -41q25 -33 25 -62q0 -40 -23 -61q-35 -31 -84 -31q-52 0 -78 31q-28 33 -28 72z" />
    <glyph glyph-name="uni0A2F_uni0A3C.nukt" horiz-adv-x="1263" 
d="M628 514q21 65 21 245q0 52 -1 107h311v263h-587q-59 -93 -59 -271.5t108.5 -287t206.5 -56.5zM959 734h-181q-9 -193 -67 -255l-24 -25q-100 -88 -210.5 -88t-203.5 117.5t-93 274.5q0 230 90 371h-272l-24 138l28 4h1270l25 -138l-28 -4h-165v-977l-24 -24l-121 120
v486zM79 338q0 45 47 76q23 14 59 16q47 3 82 -41q25 -33 25 -62q0 -40 -23 -61q-35 -31 -84 -31q-52 0 -78 31q-28 33 -28 72z" />
    <glyph glyph-name="uni0A30_uni0A3C.nukt" horiz-adv-x="1030" 
d="M849 455q0 -124 -103 -229v-1q-10 -8 -19 -16.5t-28.5 -20t-42.5 -20.5q-65 -25 -163 -25q-126 0 -207 78l-11 10q-94 91 -94 223q0 141 109 251q14 13 29 26q102 86 248 86q100 0 168 -46v358h-737l-24 138l28 4h1033l24 -138l-28 -4h-182v-674zM735 471q-2 5 -2 12
q0 98 -59 157q-5 6 -14 13q-59 50 -151 50q-98 0 -148 -42q-8 -6 -14 -13q-52 -52 -52 -136q0 -105 79 -182l10 -9q66 -64 167 -64q78 0 121 16q14 6 17 9h1q45 46 45 115v74zM57 144q0 45 47 76q23 14 59 16q47 3 82 -41q25 -33 25 -62q0 -40 -23 -61q-35 -31 -84 -31
q-52 0 -78 31q-28 33 -28 72z" />
    <glyph glyph-name="uni0A2E_uni0A3C.nukt" horiz-adv-x="1320" 
d="M374 1129h-388l-24 138l28 4h399q94 -31 148 -104t64 -347q2 -44 1 -87h416v396h-130l-24 138l28 4h437l24 -138l-28 -4h-163v-977l-24 -24l-120 120v371h-423q-15 -154 -38 -199q-59 -118 -142 -109q-62 7 -157 110q-89 97 -87 150q4 87 79 138q34 24 90 24h148
q-6 274 -50 334q-27 37 -64 62zM459 432q21 88 27 187h-199q11 -41 75.5 -105.5t96.5 -81.5zM78 275q0 46 47 76q23 14 59 16q47 4 82 -41q25 -33 25 -61q0 -40 -23 -61q-35 -31 -84 -31q-52 0 -78 31q-28 32 -28 71z" />
    <glyph glyph-name="uni0A38_uni0A3C.nukt" horiz-adv-x="1218" 
d="M396 429q20 88 26 186h-199q12 -40 76.5 -105t96.5 -81zM494 1125q35 -91 43 -308q2 -45 1 -88h416v396h-460zM1234 1268l24 -138l-27 -5h-133v-977l-24 -24l-120 120v371h-423q-15 -154 -38 -199q-59 -118 -142 -108q-62 7 -157 109q-89 97 -87 151q4 87 79 138
q35 23 90 23h148q-5 274 -49 334q-28 38 -65 62l-312 4l-24 138l28 4zM678 403q0 46 47 76q23 14 59 16q47 4 82 -41q25 -33 25 -61q0 -40 -23 -61q-35 -31 -84 -31q-52 0 -78 31q-28 32 -28 71z" />
    <glyph glyph-name="uni0A39_uni0A3C.nukt" horiz-adv-x="1076" 
d="M907 452q0 -113 -92 -202q-111 -107 -226 -107q-119 0 -245 93q-29 20 -55 47q-109 109 -109 255q0 84 26 138q15 30 38 53q31 31 66 41q39 11 59 -9q9 -9 4 -25q-6 -23 -49 -49q-30 -18 -30 -90q-1 -120 94 -215q24 -24 49 -43q113 -82 210 -82q61 0 114 53l1 1
q10 10 17 26q15 30 15 61l-1 731h-795l-24 138l28 4h1084l24 -138l-28 -4h-174zM111 152q0 45 47 76q23 14 59 16q47 3 82 -41q25 -33 25 -62q0 -40 -23 -61q-35 -31 -84 -31q-52 0 -78 31q-28 33 -28 72z" />
    <glyph glyph-name="uni0A05_uni0A3C.nukt" horiz-adv-x="1578" 
d="M880 355l1 3q14 26 14 63q0 87 -3 166l-2 -2q-87 -88 -87 -140q0 -37 16 -57q5 -6 10 -11q21 -21 42 -22h9zM887 691q-19 278 -85 438h-65q-152 -119 -254 -219q9 -109 8 -229q0 -66 -23 -109q-22 -41 -33 -53l-20 -24q-6 -7 -28 -23q-43 -32 -92 -29q-58 3 -91 45
q-58 73 -16 169q36 80 176 225q-14 132 -44 247h-322l-24 138l28 4l393 1q20 0 26 -19l7 -24q30 -104 46 -239l211 190l51 44l56 47h77q17 0 24 -14q86 -176 108 -500h303v510l36 4h247l24 -138l-27 -4h-136v-977l-24 -24l-120 120v367h-296q2 -66 1 -136q-1 -98 -55 -162
l-21 -24q-6 -8 -28 -23q-22 -16 -48 -24q-23 -6 -48 -5q-45 3 -79 37q-7 6 -13 14q-28 35 -28 95q0 110 145 254q24 25 53 50zM361 557q16 26 16 66q0 87 -5 168q-57 -70 -82 -126q-20 -45 21 -86q26 -26 50 -22zM390 312q0 45 47 76q22 14 58 16q48 3 82 -41q26 -33 26 -62
q0 -40 -24 -61q-34 -31 -84 -31q-51 0 -77 31q-28 33 -28 72z" />
    <glyph glyph-name="uni0A35_uni0A3C.nukt" horiz-adv-x="1246" 
d="M562 289q-5 16 -23 15q-245 -3 -345 97q-82 81 -64 200q12 76 86.5 151t163.5 118q130 65 546 57v202h-929l-25 138l28 4h1254l24 -138l-27 -4h-211v-251q0 -29 -29.5 -58t-58.5 -28q-137 7 -333.5 -1t-255.5 -45q-120 -76 -120.5 -141t68.5 -121.5t231 -63.5q16 0 23 19
q17 52 68 97q83 73 200 73t199 -73q55 -49 73 -110l-156 -1q-10 20 -26 36q-38 40 -93 40t-93.5 -39.5t-38.5 -95.5t38.5 -95.5t93.5 -39.5q79 0 117 71l161 1q-17 -67 -87.5 -129.5t-184.5 -62.5t-203 73q-53 44 -71 105zM163 212q0 45 47 76q23 14 59 16q47 3 82 -41
q25 -33 25 -62q0 -40 -23 -61q-35 -31 -84 -31q-52 0 -78 31q-28 33 -28 72z" />
    <glyph glyph-name="uni0A06_uni0A3C.nukt" horiz-adv-x="1998" 
d="M361 557q24 39 11 234q-57 -70 -82 -126q-20 -45 21 -86q26 -26 50 -22zM689 387q0 127 198 304q-19 278 -85 438h-65q-152 -119 -254 -219q22 -267 -15 -338q-22 -41 -33 -53l-20 -24q-6 -7 -38.5 -31t-86 -21t-86.5 45q-58 73 -19 161t179 233q-14 132 -44 247h-322
l-24 138l28 4l393 1q20 0 26 -19l7 -24q30 -104 46 -239l318 281h77q17 0 24 -14q86 -176 108 -500h303v510l36 4h669l24 -138l-27 -4h-126v-977l-24 -24l-120 120v881h-288v-977l-24 -24l-120 120v367h-296q2 -66 1 -150t-55 -148l-21 -24q-48 -56 -124 -52q-54 3 -87 44.5
t-33 101.5zM892 587q-88 -87 -88.5 -133t10 -59t23.5 -26q16 -16 43 -14q15 26 15 89.5t-3 142.5zM451 294q0 45 47 76q23 14 59 16q47 3 82 -41q25 -33 25 -62q0 -40 -23 -61q-35 -31 -84 -31q-52 0 -78 31q-28 33 -28 72z" />
    <glyph glyph-name="uni0A07_uni0A3C.nukt" horiz-adv-x="1428" 
d="M846 574q39 19 93 40.5t103 92t66 211.5q3 25 -7 211h-468q-13 -69 -13 -144.5t77 -248.5q52 -116 149 -162zM642 296q2 -110 190 -106q82 2 218 50l134 94q45 45 95 19q14 -7 17 -32q10 -69 -72 -107l-191 -87q-110 -51 -249 -51q-253 0 -256 162q-2 95 86 184
q33 34 107 82q-7 58 -99 165q-119 138 -119 276q0 85 25 184h-219v-977l-24 -24l-120 120v881h-167l-24 138l28 4h144q-41 61 -41 177q9 60 30.5 91.5t57.5 65.5l38 36q98 93 243 93h3q222 0 420 -129l102 -96l-24 -24q-161 105 -402 105h-3q-143 0 -243 -93l-16 -16
q-62 -57 -62 -115t6 -95h1179l24 -138l-27 -4h-188q5 -85 -5 -184q-23 -204 -114.5 -307.5t-220.5 -154.5q-262 -103 -261 -187zM393 552q0 45 47 76q23 14 59 16q47 3 82 -41q25 -33 25 -62q0 -40 -23 -61q-35 -31 -84 -31q-52 0 -78 31q-28 33 -28 72z" />
    <glyph glyph-name="uni0A08_uni0A3C.nukt" horiz-adv-x="1461" 
d="M563 1447l61 -73l-24 -24l-37 34l-121 120q-64 64 -63 116q-2 89 90 168q55 48 213 48q196 0 371 -144q246 -203 278 -421h137l24 -138l-28 -4h-128v-977l-24 -24l-120 120v881h-325q5 -85 -5 -184q-23 -204 -114.5 -307.5t-220.5 -154.5q-262 -103 -261 -187
q2 -110 190 -106q82 2 218 50l134 94q45 45 95 19q14 -7 17 -32q10 -69 -72 -107l-191 -87q-110 -51 -249 -51q-253 0 -256 162q-2 95 86 184q33 34 107 82q-7 58 -99 165q-119 138 -119 276q0 85 25 184h-154l-24 138l28 4h1190q-4 149 -150 277q-173 150 -312 148
q-107 -1 -159.5 -47t-52.5 -115q0 -33 45 -87zM470 574q39 19 93 40.5t103 92t66 211.5q3 25 -7 211h-468q-13 -69 -13 -144.5t77 -248.5q52 -116 149 -162zM23 539q0 45 47 76q23 14 59 16q47 3 82 -41q25 -33 25 -62q0 -40 -23 -61q-35 -31 -84 -31q-52 0 -78 31
q-28 33 -28 72z" />
    <glyph glyph-name="uni0A09_uni0A3C.nukt" horiz-adv-x="1283" 
d="M923 39q102 -9 102 -42q0 -45 -181 -93q-96 -26 -236 -24q-67 1 -105 33q-32 27 -30 81q2 51 36 81q16 14 78 18q47 3 72 -9q45 -21 63 -54zM994 879q51 -19 83 -68q38 -58 38 -116q-3 -199 -153 -341q-121 -115 -300 -115q-250 0 -396 221q-113 172 -113 461
q0 104 22 208h-177l-24 138l28 4h216q38 102 98 202q57 94 134 174q162 167 419 169q114 1 235 -90q96 -73 96 -278q0 -89 -19 -177h114l24 -138l-27 -4h-155q-51 -127 -143 -250zM900 890q91 117 137 239h-751q-11 -74 -11 -151q0 -333 176 -509q116 -116 259 -116
q140 0 207 69q90 92 90 215q0 73 -39 113q-61 63 -184 46q-101 -14 -201 -100q-16 -14 -64 -12q-26 1 -43 59q-5 18 11 63q5 12 50 40q68 43 363 44zM320 1271h756q10 59 10 119q0 172 -76 229q-117 89 -228 88q-227 -1 -375 -246q-55 -91 -87 -190zM119 192q0 46 47 76
q23 14 59 16q47 4 82 -41q25 -33 25 -61q0 -40 -23 -61q-35 -31 -84 -31q-52 0 -78 31q-28 32 -28 71z" />
    <glyph glyph-name="uni0A0A_uni0A3C.nukt" horiz-adv-x="1288" 
d="M926 -236q105 1 107 -25q3 -36 -179 -88q-96 -28 -239 -37q-68 -4 -109 19q-34 19 -36 62q-1 41 32 67q16 12 78 20q48 6 74 -2q47 -13 68 -38zM932 -43q98 -25 93 -53q-8 -37 -195 -45q-99 -4 -236 21q-65 13 -97 46q-27 28 -16 72q11 42 50 61q18 9 80 1q46 -6 69 -20
q40 -25 52 -56zM994 879q51 -19 83 -68q38 -58 38 -116q-3 -199 -153 -341q-121 -115 -300 -115q-250 0 -396 221q-113 172 -113 461q0 104 22 208h-177l-24 138l28 4h216q38 102 98 202q57 94 134 174q162 167 419 169q114 1 235 -90q96 -73 96 -278q0 -89 -19 -177h114
l24 -138l-27 -4h-155q-51 -127 -143 -250zM900 890q91 117 137 239h-751q-11 -74 -11 -151q0 -333 176 -509q116 -116 259 -116q140 0 207 69q90 92 90 215q0 73 -39 113q-61 63 -184 46q-101 -14 -201 -100q-16 -14 -64 -12q-26 1 -43 59q-5 18 11 63q5 12 50 40
q68 43 363 44zM320 1271h756q10 59 10 119q0 172 -76 229q-117 89 -228 88q-227 -1 -375 -246q-55 -91 -87 -190zM145 212q0 46 47 76q23 14 59 16q47 4 82 -41q25 -33 25 -61q0 -40 -23 -61q-35 -31 -84 -31q-52 0 -78 31q-28 32 -28 71z" />
    <glyph glyph-name="uni0A0F_uni0A3C.nukt" horiz-adv-x="1049" 
d="M-178 1669q76 121 284 121q304 0 703 -377q41 -38 59 -80q18 -41 2 -62h188l24 -138l-27 -4h-188q5 -85 -5 -184q-23 -204 -114.5 -307.5t-220.5 -154.5q-262 -103 -261 -187q2 -110 190 -106q82 2 218 50l134 94q45 45 95 19q14 -7 17 -32q10 -69 -72 -107l-191 -87
q-110 -51 -249 -51q-253 0 -256 162q-2 95 86 184q33 34 107 82q-7 58 -99 165q-119 138 -119 276q0 85 25 184h-154l-24 138l28 4h797q-37 16 -63 45q-237 266 -490 266q-167 0 -226 -95q-13 -21 -51.5 -9.5t-80 49t-61 79t-5.5 63.5zM470 574q39 19 93 40.5t103 92
t66 211.5q3 25 -7 211h-468q-13 -69 -13 -144.5t77 -248.5q52 -116 149 -162zM55 540q0 46 47 76q23 14 59 16q47 4 82 -41q25 -33 25 -61q0 -40 -23 -61q-35 -31 -84 -31q-52 0 -78 31q-28 32 -28 71z" />
    <glyph glyph-name="uni0A10_uni0A3C.nukt" horiz-adv-x="1577" 
d="M771 1632q187 -36 471 -186q-64 106 -103 137q-149 115 -230 115q-106 0 -138 -66zM689 387q0 127 198 304q-19 278 -85 438h-65q-152 -119 -254 -219q22 -267 -15 -338q-22 -41 -33 -53l-20 -24q-6 -7 -38.5 -31t-86 -21t-86.5 45q-58 73 -19 161t179 233
q-14 132 -44 247h-322l-24 138l28 4l393 1q20 0 26 -19l7 -24q30 -104 46 -239l318 281h77q17 0 24 -14q86 -176 108 -500h303v510l36 4h21q-26 5 -55 27q-213 158 -466 156q-84 0 -152 -69q-28 -28 -50 -71q-12 -23 -49.5 -13.5t-79 46t-63 79t-9.5 65.5q65 129 182 148
q-28 27 -50 64q-43 74 32 149q54 55 161.5 55t222.5 -57.5t198 -147.5q127 -138 227 -352q32 -68 -19 -79h196l24 -138l-27 -4h-136v-977l-24 -24l-120 120v367h-296q2 -66 1 -150t-55 -148l-21 -24q-48 -56 -124 -52q-54 3 -87 44.5t-33 101.5zM361 557q24 39 11 234
q-57 -70 -82 -126q-20 -45 21 -86q26 -26 50 -22zM892 587q-88 -87 -88.5 -133t10 -59t23.5 -26q16 -16 43 -14q15 26 15 89.5t-3 142.5zM418 364q0 46 47 76q23 14 59 16q47 4 82 -41q25 -33 25 -61q0 -40 -23 -61q-35 -31 -84 -31q-52 0 -78 31q-28 32 -28 71z" />
    <glyph glyph-name="uni0A13_uni0A3C.nukt" horiz-adv-x="1280" 
d="M992 876q63 -22 92 -65q37 -58 37 -116q0 -186 -146 -329l-13 -12q-117 -115 -294 -115q-185 0 -315 131q-42 41 -78 96q-114 172 -114 465q0 100 20 198h-183l-24 138l28 4h219q37 102 95 201q64 110 139 185q150 150 325 151q133 1 264 -98q14 -10 9.5 -32.5t-24 -44
t-43 -29.5t-36.5 2q-116 89 -228 88q-118 -1 -210 -94q-54 -53 -104 -138q-54 -94 -87 -191h974l24 -138l-27 -4h-155q-52 -129 -145 -253zM903 894q89 115 135 235h-752q-11 -69 -11 -140q0 -344 177 -520q115 -116 274 -116q125 0 192 69q89 92 89 215q0 57 -44.5 101.5
t-184.5 44.5t-227 -61q-23 -16 -43 -15t-25 18t8 41t36 40q131 91 306 91q38 0 70 -3zM38 311q0 45 47 76q23 14 59 16q47 3 82 -41q25 -33 25 -62q0 -40 -23 -61q-35 -31 -84 -31q-52 0 -78 31q-28 33 -28 72z" />
    <glyph glyph-name="uni0A14_uni0A3C.nukt" horiz-adv-x="1579" 
d="M658 1769q-145 103 -145 436h34q-14 -165 145 -266q139 -91 284 -117q176 -32 286 -140q123 -123 123 -260l1 -122h-34q0 84 -86 185q-75 88 -163 133q32 -104 32 -205v-115h-34q0 72 -41 177q-46 114 -102 187q-182 23 -300 107zM880 355l1 3q14 26 14 63q0 87 -3 166
l-2 -2q-87 -88 -87 -140q0 -37 16 -57q5 -6 10 -11q21 -21 42 -22h9zM887 691q-19 278 -85 438h-65q-152 -119 -254 -219q9 -109 8 -229q0 -66 -23 -109q-22 -41 -33 -53l-20 -24q-6 -7 -28 -23q-43 -32 -92 -29q-58 3 -91 45q-58 73 -16 169q36 80 176 225q-14 132 -44 247
h-322l-24 138l28 4l393 1q20 0 26 -19l7 -24q30 -104 46 -239l211 190l51 44l56 47h77q17 0 24 -14q86 -176 108 -500h303v510l36 4h247l24 -138l-27 -4h-136v-977l-24 -24l-120 120v367h-296q2 -66 1 -136q-1 -98 -55 -162l-21 -24q-6 -8 -28 -23q-22 -16 -48 -24
q-23 -6 -48 -5q-45 3 -79 37q-7 6 -13 14q-28 35 -28 95q0 110 145 254q24 25 53 50zM361 557q16 26 16 66q0 87 -5 168q-57 -70 -82 -126q-20 -45 21 -86q26 -26 50 -22zM372 321q0 46 47 76q23 14 59 16q47 4 82 -41q25 -33 25 -61q0 -40 -23 -61q-35 -31 -84 -31
q-52 0 -78 31q-28 32 -28 71z" />
    </font>
</defs>
</svg>
